<svg width="22" height="22" viewBox="0 0 22 22" fill="none" xmlns="http://www.w3.org/2000/svg">
<g id="Group 12">
<path id="Vector" d="M8.48755 7.92871C8.79958 8.01002 9.09818 8.10786 9.3973 8.22322C9.44007 8.2395 9.48284 8.25579 9.5269 8.27257C9.61909 8.3077 9.71124 8.34291 9.80336 8.3782C10.053 8.47382 10.303 8.56876 10.553 8.66373C10.6047 8.68339 10.6564 8.70304 10.7097 8.72329C11.2567 8.93101 11.8056 9.13441 12.3547 9.33731C12.5459 9.40798 12.737 9.47868 12.9281 9.54939C12.974 9.56635 13.0198 9.58332 13.0671 9.60079C13.4832 9.75487 13.8987 9.91043 14.314 10.0667C14.3473 10.0793 14.3806 10.0918 14.4149 10.1047C14.5513 10.1561 14.6877 10.2074 14.8241 10.2588C15.2306 10.4118 15.6373 10.5641 16.0441 10.7165C16.1792 10.7671 16.3143 10.8177 16.4495 10.8683C16.9341 11.0499 17.4189 11.2312 17.9038 11.4124C19.0104 11.8259 20.1162 12.2411 21.2184 12.6646C21.2184 12.6925 21.2184 12.7204 21.2184 12.7491C20.1943 13.1665 19.1702 13.5837 18.143 13.9942C17.9972 14.0525 17.8515 14.111 17.7059 14.1695C17.586 14.2176 17.4661 14.2656 17.3461 14.3135C17.2619 14.3472 17.1777 14.3811 17.0935 14.415C17.0433 14.435 16.993 14.455 16.9413 14.4757C16.8969 14.4934 16.8526 14.5112 16.8069 14.5295C16.701 14.5674 16.701 14.5674 16.6097 14.5674C16.834 14.835 17.0694 15.0887 17.3172 15.3379C17.426 15.4501 17.5288 15.565 17.6307 15.6826C17.8072 15.8854 17.9946 16.0757 18.1866 16.2657C18.3647 16.4428 18.5295 16.6275 18.693 16.8164C18.8151 16.9521 18.9434 17.0812 19.0738 17.2101C19.2763 17.4105 19.4658 17.617 19.6513 17.8312C19.7734 17.967 19.9017 18.096 20.032 18.225C20.239 18.4299 20.4346 18.6403 20.6238 18.8597C20.7091 18.9566 20.7985 19.0478 20.8904 19.1394C21.1565 19.4208 21.2685 19.7336 21.264 20.1066C21.2326 20.4737 21.0328 20.7632 20.745 21.0104C20.4034 21.2582 20.0477 21.2906 19.6213 21.2483C19.1256 21.1354 18.8572 20.8472 18.5499 20.4897C18.4256 20.3498 18.2949 20.2175 18.1612 20.0855C17.9586 19.8851 17.7691 19.6786 17.5836 19.4644C17.4615 19.3286 17.3333 19.1996 17.2029 19.0706C17.0004 18.8703 16.8109 18.6638 16.6254 18.4496C16.5033 18.3138 16.375 18.1848 16.2447 18.0558C16.0422 17.8555 15.8527 17.649 15.6672 17.4348C15.5233 17.2748 15.3701 17.1238 15.2165 16.9718C15.0002 16.7566 14.7994 16.5315 14.602 16.301C14.476 16.4063 14.3964 16.5233 14.3093 16.6576C14.2788 16.7045 14.2482 16.7514 14.2167 16.7998C14.1835 16.8511 14.1504 16.9024 14.1172 16.9538C14.0825 17.0072 14.0477 17.0606 14.013 17.1139C13.9408 17.2248 13.8687 17.3358 13.7967 17.4468C13.6482 17.6753 13.4987 17.9032 13.3492 18.1311C13.2854 18.2283 13.2218 18.3256 13.1581 18.4229C13.0232 18.6288 12.8882 18.8347 12.753 19.0405C12.682 19.1487 12.611 19.257 12.54 19.3652C12.5063 19.4165 12.4726 19.4679 12.4388 19.5192C12.2743 19.7697 12.1103 20.02 11.9554 20.2758C11.8642 20.2335 11.8642 20.2335 11.8251 20.1285C11.812 20.0813 11.7989 20.0341 11.7854 19.9854C11.778 19.9591 11.7706 19.9328 11.763 19.9057C11.7379 19.8164 11.7135 19.7271 11.689 19.6377C11.671 19.5733 11.6531 19.509 11.6351 19.4446C11.5856 19.2669 11.5365 19.0891 11.4875 18.9113C11.4457 18.7596 11.4035 18.6081 11.3614 18.4565C11.2088 17.9073 11.0573 17.3579 10.906 16.8084C10.8808 16.7171 10.8556 16.6258 10.8305 16.5345C10.5954 15.6811 10.3607 14.8277 10.1265 13.9741C10.1135 13.927 10.1006 13.8799 10.0873 13.8314C10.0744 13.7845 10.0616 13.7376 10.0483 13.6893C9.77026 12.6761 9.49122 11.6632 9.2105 10.6507C9.18401 10.5552 9.15754 10.4596 9.13106 10.3641C9.09003 10.2161 9.04897 10.068 9.0079 9.92002C8.98495 9.83731 8.96202 9.75459 8.9391 9.67188C8.86434 9.40255 8.78901 9.13337 8.71276 8.8644C8.69777 8.81136 8.68277 8.75832 8.66733 8.70367C8.63901 8.60359 8.61055 8.50355 8.58193 8.40354C8.56948 8.35948 8.55702 8.31543 8.54419 8.27003C8.5332 8.23149 8.52221 8.19296 8.5109 8.15325C8.48755 8.05556 8.48755 8.05556 8.48755 7.92871Z" fill="#F1B037"/>
<path id="Vector_2" d="M10.7746 4.29598C11.5482 4.95032 12.1078 5.89211 12.1915 6.8685C12.2389 7.86086 12.2389 7.86086 12.1003 8.26388C12.0551 8.28482 12.0551 8.28482 12.009 8.30617C11.8749 8.2628 11.7454 8.21619 11.6144 8.16577C11.5528 8.14253 11.5528 8.14253 11.4899 8.11882C11.3529 8.06705 11.2161 8.01483 11.0793 7.96261C10.9838 7.92645 10.8884 7.89033 10.7929 7.85424C10.6421 7.79724 10.4914 7.74019 10.3406 7.68303C9.96371 7.54008 9.58624 7.39844 9.20844 7.25748C9.15483 7.23748 9.10123 7.21747 9.046 7.19686C8.83549 7.11831 8.62498 7.03978 8.41445 6.96129C8.26805 6.9067 8.1217 6.85201 7.97535 6.79731C7.93237 6.78131 7.88939 6.76531 7.84511 6.74882C7.58792 6.6526 7.33356 6.55174 7.08093 6.44566C7.08936 6.47463 7.09779 6.50361 7.10647 6.53346C7.37231 7.44875 7.62904 8.36612 7.88291 9.28432C7.93788 9.4831 7.99307 9.68184 8.0483 9.88057C8.09124 10.0352 8.13402 10.1898 8.17677 10.3445C8.19709 10.4179 8.21747 10.4913 8.2379 10.5647C8.2661 10.6661 8.29409 10.7675 8.32204 10.8689C8.33042 10.8989 8.33881 10.9289 8.34745 10.9598C8.38031 11.0798 8.40421 11.1839 8.40421 11.3084C7.55219 11.555 6.43396 11.2008 5.68689 10.8421C4.6708 10.3036 3.96632 9.4389 3.64155 8.40659C3.4227 7.65005 3.41329 6.76418 3.70429 6.02281C3.72188 5.97768 3.73947 5.93255 3.75759 5.88605C3.96558 5.39454 4.23757 4.97902 4.6169 4.58514C4.65113 4.54939 4.68536 4.51363 4.72063 4.47679C6.31484 2.90622 9.05954 2.90918 10.7746 4.29598Z" fill="#F1B037"/>
<path id="Vector_3" d="M7.83323 0.737751C9.55362 0.69609 11.3334 1.33799 12.5833 2.42749C12.6494 2.48602 12.7152 2.54487 12.7809 2.60371C12.8231 2.64018 12.8654 2.67665 12.9089 2.71422C14.1593 3.82204 14.8874 5.47255 14.9348 7.06571C14.9427 7.61989 14.9047 8.14882 14.7886 8.69267C14.7772 8.74668 14.7657 8.8007 14.7539 8.85635C14.6936 9.10721 14.6936 9.10721 14.6517 9.20008C14.4757 9.25445 14.4214 9.21858 14.2519 9.154C14.2009 9.13478 14.1499 9.11557 14.0973 9.09577C14.0441 9.07525 13.9908 9.05473 13.9359 9.03359C13.8821 9.01323 13.8283 8.99287 13.7729 8.97189C13.6398 8.92146 13.5069 8.87065 13.3741 8.81952C13.3973 8.63729 13.4227 8.45963 13.4654 8.28039C13.7307 6.93186 13.4148 5.52131 12.5984 4.37966C12.4193 4.14575 12.2353 3.91477 12.0141 3.71352C11.9139 3.61854 11.9139 3.61854 11.9139 3.53397C11.8877 3.52345 11.8615 3.51293 11.8344 3.50209C11.7165 3.44178 11.6389 3.37076 11.5432 3.28291C10.5131 2.41117 9.0578 1.98736 7.67903 2.01423C6.05555 2.08643 4.59884 2.72484 3.50202 3.83417C2.90921 4.46673 2.52915 5.22801 2.28595 6.02875C2.27037 6.08004 2.25478 6.13133 2.23872 6.18418C1.90957 7.50494 2.2027 8.94844 2.95365 10.1006C3.77826 11.3164 5.06054 12.158 6.56979 12.4862C7.30732 12.6366 8.01535 12.6324 8.76545 12.5828C8.81896 12.7634 8.87209 12.944 8.92515 13.1246C8.94039 13.176 8.95562 13.2273 8.97132 13.2803C8.99293 13.3541 8.99293 13.3541 9.01499 13.4293C9.02837 13.4747 9.04175 13.5201 9.05554 13.5669C9.08486 13.6822 9.08486 13.6822 9.08486 13.8091C7.1901 14.044 5.25089 13.7512 3.68387 12.6756C3.40267 12.4753 3.13688 12.2587 2.87915 12.0331C2.84274 12.0021 2.80633 11.9711 2.76881 11.9392C1.47127 10.7941 0.805386 9.13761 0.737935 7.50003C0.691829 5.71439 1.40851 4.08282 2.69663 2.77285C2.72921 2.73911 2.7618 2.70537 2.79537 2.67061C4.11824 1.37138 5.95877 0.824866 7.83323 0.737751Z" fill="#F1B037"/>
</g>
</svg>
