<svg width="63" height="44" viewBox="0 0 63 44" fill="none" xmlns="http://www.w3.org/2000/svg">
<g id="Group 21">
<path id="Vector" d="M54.5615 0.37085C53.6758 1.24999 52.7488 2.08917 51.9138 3.01577C50.1156 5.01132 48.6272 7.22166 47.8213 9.85409C47.6519 10.406 47.5357 10.983 47.4679 11.5574C47.1703 14.07 47.2646 14.1824 49.6461 14.4621C56.6841 15.2863 61.9335 20.8558 62.2529 27.8365C62.5893 35.1444 58.0079 41.2809 51.1031 42.7719C42.9422 44.5327 34.9652 38.1714 34.5683 29.5873C33.9439 16.1255 40.9939 5.1362 53.2571 0.460762C53.6225 0.320899 54.0049 0.233484 54.3776 0.121094C54.4381 0.203513 54.501 0.28843 54.5615 0.37085Z" fill="#FEEBC9"/>
<path id="Vector_2" d="M20.106 0C17.1921 3.3692 14.162 6.49864 13.2883 11.0617C13.085 12.1231 13.1649 13.2396 13.1165 14.2436C14.7864 14.4858 16.2047 14.5708 17.5624 14.9079C24.4043 16.6038 28.7437 23.3572 27.8458 30.8049C27.0109 37.7256 20.9846 43.1078 14.1039 43.0754C7.1023 43.0429 1.08569 37.7406 0.41771 30.6475C-0.67622 18.9889 4.23195 8.21197 15.3189 2.21034C16.863 1.37366 18.5087 0.731784 20.106 0Z" fill="#FEEBC9"/>
</g>
</svg>
