<svg width="16" height="22" viewBox="0 0 16 22" fill="none" xmlns="http://www.w3.org/2000/svg">
<g id="Group 17">
<g id="Group 16">
<path id="Vector" d="M1.67229 1.12437C2.06464 1.43801 2.41175 1.81045 2.76326 2.16819C2.8938 2.30089 3.02483 2.43311 3.15583 2.56536C3.39842 2.81027 3.64081 3.05538 3.88235 3.30132C4.05166 3.47368 4.2216 3.64538 4.39194 3.81671C4.45595 3.88131 4.51973 3.94613 4.58326 4.0112C5.78027 5.23649 7.42059 5.99788 9.14618 6.05863C9.2273 6.06248 9.2273 6.06248 9.31006 6.06641C10.6207 6.1001 11.5742 5.65945 12.6838 5.01197C12.7913 4.94965 12.8987 4.88735 13.0061 4.82506C13.4307 4.57845 13.8544 4.33086 14.2739 4.07576C14.563 3.90728 14.8466 3.87572 15.1751 3.91547C15.5072 4.00969 15.7267 4.23706 15.9225 4.51356C16.0176 4.7988 16.0314 5.1467 15.9289 5.43172C15.6711 5.86799 15.2375 6.09836 14.8045 6.33275C14.6925 6.39444 14.5805 6.45623 14.4686 6.5181C14.4119 6.54939 14.3552 6.58068 14.2968 6.61291C13.9889 6.78452 13.685 6.96287 13.3813 7.14169C13.1218 7.29439 12.8615 7.44514 12.5992 7.59279C12.5445 7.62383 12.4899 7.65486 12.4336 7.68683C12.3291 7.74618 12.2242 7.80501 12.119 7.86322C11.6863 8.11032 11.5225 8.36615 11.389 8.84305C11.1859 9.6333 11.164 10.4434 11.1704 11.2545C11.1705 11.3056 11.1707 11.3567 11.1709 11.4093C11.174 12.1373 11.1927 12.8551 11.3194 13.5739C11.3361 13.67 11.3487 13.7668 11.3607 13.8636C11.4515 14.4334 11.8001 14.9376 12.0859 15.4287C12.1179 15.4838 12.1179 15.4838 12.1504 15.5401C12.2485 15.7089 12.3477 15.8771 12.4475 16.0449C12.615 16.3271 12.7786 16.6116 12.9423 16.8959C12.9739 16.9508 13.0055 17.0056 13.0381 17.0621C13.1688 17.2891 13.2994 17.5161 13.4301 17.7431C13.527 17.9113 13.6239 18.0796 13.7208 18.2479C13.7518 18.3017 13.7828 18.3556 13.8147 18.411C13.9527 18.6506 14.0913 18.8896 14.2331 19.1269C14.2562 19.1657 14.2794 19.2045 14.3032 19.2445C14.345 19.3143 14.387 19.384 14.4294 19.4535C14.6692 19.8541 14.7217 20.2002 14.6769 20.662C14.5861 20.9926 14.4077 21.302 14.1087 21.4815C13.7394 21.6719 13.4117 21.779 12.9968 21.6746C12.4367 21.4891 12.1922 21.1809 11.9115 20.6745C11.8817 20.622 11.8519 20.5696 11.8212 20.5156C11.7581 20.4047 11.6953 20.2936 11.6328 20.1824C11.5101 19.965 11.3852 19.749 11.2602 19.533C11.1663 19.3707 11.0726 19.2082 10.979 19.0457C10.8539 18.8284 10.7287 18.6111 10.6034 18.3939C10.5726 18.3404 10.5418 18.287 10.51 18.2319C10.448 18.1244 10.3859 18.0169 10.3239 17.9094C10.1646 17.6335 10.0057 17.3574 9.84744 17.0809C9.43819 16.3661 9.43819 16.3661 9.01539 15.6592C8.99658 15.6278 8.97778 15.5965 8.9584 15.5641C8.79247 15.2974 8.60278 15.1202 8.29914 15.03C7.2274 14.9073 6.26705 15.4746 5.45303 16.1156C5.26111 16.272 5.07866 16.4363 4.90163 16.6093C4.8759 16.6341 4.85017 16.659 4.82366 16.6845C4.50066 17.0131 4.33533 17.3348 4.33218 17.7994C4.33341 17.8772 4.33341 17.8772 4.33467 17.9566C4.33439 18.0113 4.33411 18.066 4.33382 18.1224C4.333 18.2961 4.33377 18.4698 4.33486 18.6435C4.33569 18.8172 4.33614 18.9908 4.33537 19.1645C4.33491 19.2722 4.33536 19.3799 4.33685 19.4875C4.33521 19.9431 4.20931 20.2979 3.90025 20.6369C3.58991 20.9092 3.22972 20.9795 2.8284 20.9747C2.45008 20.9424 2.15007 20.7926 1.89495 20.5121C1.63673 20.1618 1.56694 19.7849 1.5654 19.3563C1.56508 19.2962 1.56476 19.2361 1.56443 19.1742C1.56438 19.1099 1.56432 19.0456 1.56426 18.9793C1.5641 18.9118 1.56394 18.8442 1.56376 18.7767C1.56346 18.6353 1.56337 18.4939 1.5634 18.3525C1.56341 18.1728 1.56273 17.993 1.56187 17.8133C1.56131 17.6738 1.56121 17.5343 1.56124 17.3947C1.56115 17.2967 1.56062 17.1987 1.56007 17.1007C1.56251 16.1302 1.85668 15.5166 2.49033 14.7927C3.91705 13.1354 4.60583 10.6227 4.44872 8.46014C4.3133 7.02485 3.6061 6.13518 2.61138 5.15471C2.51377 5.05843 2.41641 4.96191 2.31911 4.86532C2.04295 4.59118 1.76664 4.3172 1.48954 4.04401C1.31886 3.87571 1.14868 3.70692 0.978813 3.53781C0.914494 3.47396 0.849995 3.41029 0.785306 3.34682C0.694966 3.25815 0.605272 3.16886 0.515693 3.07941C0.476127 3.04103 0.476127 3.04103 0.435762 3.00187C0.167751 2.73158 -0.000478636 2.43411 1.02299e-06 2.04643C0.0117622 1.69592 0.111601 1.49689 0.349756 1.24781C0.722862 0.907086 1.23978 0.87496 1.67229 1.12437Z" fill="#F1B037"/>
<path id="Vector_2" d="M10.5935 0.732734C10.6598 0.775909 10.6598 0.775909 10.7274 0.819956C11.1749 1.25553 11.4428 1.83067 11.453 2.45536C11.4441 3.11135 11.2214 3.61858 10.7897 4.10946C10.2863 4.58543 9.65757 4.69897 8.99477 4.68691C8.44328 4.66127 7.98932 4.40843 7.60393 4.02224C7.14821 3.50238 7.00561 2.92588 7.03365 2.2486C7.07733 1.68261 7.3504 1.22092 7.75477 0.835921C8.60074 0.122823 9.70045 0.115696 10.5935 0.732734Z" fill="#F1B037"/>
</g>
</g>
</svg>
