<svg width="26" height="26" viewBox="0 0 26 26" fill="none" xmlns="http://www.w3.org/2000/svg">
<g id="Group 61">
<path id="Vector" d="M0.0226713 7.91162C8.58474 7.91162 17.1468 7.91162 25.9683 7.91162C25.9738 10.2513 25.9792 12.5911 25.9848 15.0017C25.9872 15.7394 25.9896 16.4772 25.9921 17.2373C25.9933 18.1408 25.9933 18.1408 25.9935 18.5642C25.9937 18.8589 25.9947 19.1535 25.9961 19.4482C25.998 19.8249 25.9985 20.2017 25.9981 20.5784C25.9982 20.7161 25.9987 20.8538 25.9997 20.9915C26.0101 22.4593 25.716 23.6953 24.6513 24.786C23.7224 25.6012 22.7183 26.0054 21.4859 25.9976C21.41 25.9979 21.334 25.9982 21.2558 25.9985C21.0034 25.9993 20.7511 25.9987 20.4988 25.9981C20.317 25.9982 20.1352 25.9987 19.9534 25.9991C19.5122 26 19.071 25.9998 18.6298 25.9993C18.271 25.9988 17.9121 25.9987 17.5533 25.999C17.5021 25.999 17.4509 25.999 17.3982 25.9991C17.2941 25.9991 17.1901 25.9992 17.086 25.9992C16.112 25.9998 15.138 25.9992 14.164 25.9981C13.3296 25.9972 12.4951 25.9974 11.6607 25.9983C10.69 25.9993 9.71929 25.9998 8.7486 25.9991C8.64496 25.9991 8.54131 25.999 8.43767 25.999C8.36119 25.9989 8.36119 25.9989 8.28316 25.9989C7.92508 25.9987 7.56699 25.999 7.20891 25.9994C6.77211 26 6.33531 25.9999 5.89851 25.9988C5.67594 25.9983 5.45339 25.9982 5.23082 25.9987C4.9889 25.9993 4.74701 25.9986 4.50509 25.9976C4.43567 25.998 4.36626 25.9985 4.29474 25.9989C3.11326 25.9897 2.07625 25.5084 1.23794 24.6894C0.182846 23.5755 -0.00788364 22.2777 0.00024372 20.8125C0.000304319 20.6692 0.000277727 20.5259 0.000171561 20.3825C0.000127169 20.0006 0.00126776 19.6187 0.00266283 19.2367C0.00379232 18.8777 0.00384111 18.5186 0.00398165 18.1595C0.00501611 17.111 0.00777424 16.0625 0.0103241 15.014C0.0143987 12.6702 0.0184733 10.3264 0.0226713 7.91162ZM8.47159 12.6714C7.36937 13.8358 6.8912 15.3713 6.90614 16.9498C6.95608 18.6265 7.7005 20.1405 8.91268 21.2925C10.291 22.5071 11.9864 22.9184 13.7857 22.8085C14.454 22.7267 15.091 22.508 15.6954 22.2153C15.7561 22.1862 15.8168 22.1572 15.8794 22.1272C16.3524 21.8855 16.7483 21.5792 17.1442 21.2266C17.195 21.182 17.2459 21.1374 17.2983 21.0914C18.3743 20.0862 19.004 18.6373 19.0745 17.1759C19.1269 15.4168 18.5791 13.9183 17.4076 12.5916C17.3713 12.5497 17.3349 12.5078 17.2975 12.4647C16.2616 11.3482 14.6672 10.7467 13.1702 10.678C11.3488 10.6936 9.7607 11.3708 8.47159 12.6714Z" fill="#F1B037"/>
<path id="Vector_2" d="M4.50039 0.00197556C4.50135 0.0777788 4.50231 0.153582 4.5033 0.231682C4.50713 0.514001 4.51222 0.796285 4.51768 1.07858C4.51986 1.20055 4.52171 1.32254 4.52321 1.44452C4.52542 1.62028 4.52887 1.79598 4.53255 1.97172C4.53297 2.02591 4.53339 2.0801 4.53382 2.13593C4.54205 2.4606 4.58615 2.68631 4.7638 2.96818C5.00613 3.19255 5.17638 3.28913 5.50875 3.31424C5.85941 3.29044 6.06052 3.19326 6.29897 2.93522C6.85366 2.11267 6.52068 0.826474 6.5418 0.00197556C10.8446 0.00197556 15.1473 0.00197556 19.5805 0.00197556C19.6022 0.806805 19.6239 1.61163 19.6463 2.44085C19.8468 3.06964 19.8468 3.06964 20.3254 3.38427C20.5727 3.4476 20.7872 3.43541 21.0292 3.36367C21.4174 3.12911 21.5155 2.87167 21.6219 2.44085C21.6481 2.24328 21.6539 2.04858 21.6556 1.84942C21.6568 1.79612 21.658 1.74283 21.6592 1.68792C21.6627 1.52006 21.665 1.35222 21.6672 1.18434C21.6694 1.06954 21.6716 0.954746 21.674 0.839954C21.6795 0.560636 21.684 0.281322 21.6877 0.00197556C22.7946 -0.0120493 23.7684 0.463568 24.5852 1.18846C24.6264 1.22346 24.6676 1.25847 24.71 1.29454C25.4215 1.94407 25.7648 2.84349 25.9681 3.75917C25.9681 4.45523 25.9681 5.1513 25.9681 5.86846C17.4061 5.86846 8.84399 5.86846 0.0224609 5.86846C0.0224609 2.58462 0.0224609 2.58462 1.28985 1.29763C2.17622 0.441867 3.26243 -0.0347381 4.50039 0.00197556Z" fill="#F1B037"/>
<path id="Vector_3" d="M15.3001 13.3833C15.5384 13.565 15.75 13.7618 15.9587 13.9765C15.9948 14.0106 16.031 14.0447 16.0682 14.0798C16.3174 14.3352 16.4724 14.6421 16.6336 14.957C16.6674 15.0223 16.6674 15.0223 16.7018 15.0889C17.1112 15.9217 17.1844 17.0734 16.887 17.9554C16.6035 18.6371 16.2974 19.1889 15.7611 19.7112C15.7271 19.7474 15.693 19.7836 15.658 19.8209C15.4028 20.0702 15.0962 20.2254 14.7816 20.3868C14.7164 20.4206 14.7164 20.4206 14.6498 20.4551C13.8178 20.8648 12.6672 20.9381 11.7861 20.6404C11.105 20.3566 10.5537 20.0502 10.032 19.5134C9.99583 19.4793 9.95967 19.4453 9.92241 19.4102C9.67326 19.1548 9.51829 18.8479 9.35701 18.5329C9.3345 18.4894 9.312 18.4459 9.28881 18.4011C8.87947 17.5682 8.80624 16.4165 9.10363 15.5345C9.38716 14.8528 9.69327 14.301 10.2295 13.7788C10.2636 13.7426 10.2976 13.7064 10.3327 13.6691C10.5878 13.4197 10.8945 13.2646 11.2091 13.1031C11.2526 13.0806 11.296 13.0581 11.3408 13.0349C12.6241 12.4029 14.1165 12.6721 15.3001 13.3833ZM13.2875 16.1764C13.2337 16.2312 13.1798 16.2861 13.1243 16.3425C12.9931 16.4762 12.8623 16.6104 12.7319 16.745C12.4125 16.5971 12.216 16.3609 11.9769 16.1064C11.6794 15.8348 11.3851 15.7808 10.9917 15.7884C10.6814 15.8502 10.4902 16.0434 10.2954 16.2836C10.1384 16.5853 10.1477 16.8129 10.2295 17.1405C10.4041 17.4315 10.61 17.6742 10.8482 17.9137C10.8818 17.9478 10.9154 17.9818 10.9501 18.017C11.0208 18.0884 11.0917 18.1597 11.1627 18.2308C11.2705 18.339 11.3773 18.4482 11.484 18.5575C11.5532 18.6272 11.6225 18.6969 11.6919 18.7665C11.7233 18.7988 11.7547 18.8311 11.787 18.8645C12.0869 19.1608 12.3679 19.3104 12.7937 19.3239C13.0196 19.284 13.1419 19.1979 13.3105 19.0446C13.3564 19.0029 13.4022 18.9613 13.4495 18.9184C13.6635 18.7174 13.8737 18.5131 14.0814 18.3056C14.1256 18.2615 14.1699 18.2174 14.2155 18.172C14.308 18.0798 14.4004 17.9874 14.4927 17.895C14.6341 17.7536 14.776 17.6128 14.9179 17.472C15.0081 17.3818 15.0983 17.2917 15.1885 17.2015C15.2308 17.1596 15.2731 17.1177 15.3168 17.0745C15.3559 17.0351 15.3951 16.9957 15.4354 16.9552C15.4698 16.9208 15.5042 16.8865 15.5396 16.8511C15.77 16.5787 15.7903 16.3314 15.7812 15.9849C15.7503 15.7346 15.6706 15.6084 15.4977 15.4267C14.5775 14.7873 13.9334 15.5092 13.2875 16.1764Z" fill="#F1B037"/>
</g>
</svg>
