<svg width="27" height="27" viewBox="0 0 27 27" fill="none" xmlns="http://www.w3.org/2000/svg">
<path id="Vector" d="M8.42372 0.00684373C8.54614 0.00665493 8.66857 0.00644052 8.791 0.00620264C9.12169 0.00564912 9.45237 0.00549866 9.78306 0.00545836C9.99024 0.00541341 10.1974 0.0052786 10.4046 0.00511209C11.129 0.00453027 11.8535 0.00427198 12.5779 0.00432165C13.2505 0.00435945 13.9231 0.00369539 14.5957 0.00270005C15.1753 0.00187316 15.755 0.00153863 16.3347 0.00157876C16.6799 0.00159473 17.0251 0.00142032 17.3703 0.000748668C17.6954 0.000133352 18.0205 0.000137596 18.3456 0.00059224C18.464 0.000657443 18.5824 0.000513366 18.7008 0.000128601C19.6784 -0.00283894 20.6513 0.044227 21.6046 0.279766C21.6871 0.299878 21.6871 0.299878 21.7712 0.320397C23.3741 0.732381 24.9245 1.732 25.7868 3.16552C26.7587 4.82259 26.9937 6.52702 26.9932 8.42119C26.9933 8.54358 26.9936 8.66597 26.9938 8.78836C26.9943 9.11895 26.9945 9.44954 26.9945 9.78013C26.9946 9.98725 26.9947 10.1944 26.9949 10.4015C26.9955 11.1257 26.9957 11.8499 26.9957 12.5741C26.9956 13.2465 26.9963 13.9189 26.9973 14.5913C26.9981 15.1708 26.9985 15.7503 26.9984 16.3298C26.9984 16.6749 26.9986 17.02 26.9993 17.3651C26.9999 17.6901 26.9999 18.0151 26.9994 18.3401C26.9993 18.4585 26.9995 18.5769 26.9999 18.6952C27.0028 19.6725 26.9558 20.6451 26.7201 21.5981C26.7067 21.6531 26.6933 21.708 26.6795 21.7647C26.2674 23.3671 25.2675 24.9171 23.8335 25.7791C22.1788 26.749 20.4298 26.9961 18.5394 26.9932C18.4175 26.9935 18.2956 26.9938 18.1738 26.9942C17.8462 26.995 17.5186 26.9951 17.1911 26.9949C16.9158 26.9948 16.6406 26.9951 16.3654 26.9954C15.7151 26.9961 15.0647 26.9962 14.4143 26.9958C13.7475 26.9954 13.0808 26.9962 12.414 26.9975C11.8378 26.9986 11.2617 26.999 10.6855 26.9988C10.3431 26.9987 10.0006 26.9989 9.6581 26.9997C6.81705 27.0064 4.153 26.9005 1.98898 24.8106C0.3414 23.1196 0.00614619 20.8316 0.00684626 18.5707C0.00665741 18.4483 0.00644294 18.3259 0.00620498 18.2035C0.00565129 17.873 0.00550114 17.5424 0.00546082 17.2118C0.00541586 17.0047 0.0052803 16.7975 0.00511374 16.5904C0.00453175 15.8662 0.00427374 15.142 0.00432343 14.4178C0.00436124 13.7454 0.00369711 13.073 0.00270147 12.4006C0.00187433 11.8211 0.00153932 11.2416 0.00157946 10.6621C0.00159543 10.317 0.00142159 9.97191 0.000749733 9.6268C0.000134232 9.30179 0.000138237 8.97679 0.000593017 8.65178C0.00065824 8.53341 0.000513519 8.41504 0.000128639 8.29667C-0.0028398 7.3194 0.0442408 6.34677 0.279851 5.3938C0.293263 5.33884 0.306675 5.28387 0.320493 5.22724C0.731601 3.62872 1.72967 2.06956 3.16647 1.21281C4.82516 0.242173 6.52814 0.00625713 8.42372 0.00684373ZM8.80211 7.08766C8.75239 7.13763 8.70266 7.18761 8.65143 7.2391C8.49372 7.39782 8.33668 7.55718 8.17965 7.71658C8.07242 7.82472 7.96515 7.93282 7.85783 8.04088C7.59573 8.30498 7.33418 8.56961 7.07305 8.83466C6.89619 8.75255 6.78143 8.67557 6.62804 8.54726C6.38306 8.34404 6.20056 8.30769 5.88375 8.31351C5.60934 8.34881 5.40686 8.47105 5.22535 8.67767C5.06146 8.92486 5.02757 9.15246 5.02327 9.44512C5.12742 9.89756 5.54924 10.232 5.86405 10.5472C5.93795 10.6234 5.93795 10.6234 6.01333 10.7011C6.31724 11.0065 6.57752 11.2617 7.02407 11.3048C7.06232 11.2991 7.10058 11.2933 7.13999 11.2873C7.17841 11.2827 7.21683 11.2781 7.25641 11.2733C7.58899 11.1596 7.84423 10.9144 8.08949 10.6714C8.11935 10.642 8.14922 10.6125 8.17999 10.5822C8.27759 10.4858 8.37473 10.389 8.47181 10.292C8.54002 10.2243 8.60825 10.1565 8.67649 10.0887C8.81902 9.94697 8.96128 9.80498 9.10339 9.66284C9.28495 9.48132 9.46736 9.30068 9.65001 9.12026C9.79104 8.98067 9.93149 8.84052 10.0718 8.70019C10.1388 8.63337 10.206 8.56674 10.2734 8.50033C10.3678 8.40721 10.4613 8.31331 10.5547 8.21919C10.608 8.1661 10.6613 8.11301 10.7162 8.05831C10.9024 7.83 11.0254 7.59463 11.0606 7.2973C11.0203 6.91837 10.8914 6.68982 10.6016 6.44102C9.87142 5.99922 9.28779 6.59212 8.80211 7.08766ZM13.1023 8.72049C12.9546 8.96657 12.9134 9.17855 12.9329 9.46456C13.0165 9.75925 13.1383 9.93133 13.3779 10.122C13.6155 10.2483 13.7862 10.2914 14.0513 10.2927C14.1436 10.2934 14.1436 10.2934 14.2378 10.2941C14.339 10.2943 14.339 10.2943 14.4422 10.2946C14.5134 10.295 14.5845 10.2954 14.6578 10.2958C14.8936 10.2971 15.1295 10.2978 15.3654 10.2984C15.446 10.2987 15.5265 10.299 15.6095 10.2992C15.9918 10.3004 16.3741 10.3013 16.7564 10.3018C17.197 10.3025 17.6375 10.3041 18.0781 10.3067C18.4603 10.3088 18.8424 10.3095 19.2246 10.3098C19.3868 10.3101 19.5491 10.3108 19.7113 10.312C19.9386 10.3135 20.1659 10.3135 20.3932 10.313C20.46 10.3138 20.5268 10.3147 20.5957 10.3155C20.9927 10.3127 21.2983 10.2628 21.6282 10.0315C21.8879 9.75853 21.9675 9.53676 21.9605 9.15748C21.9313 8.93053 21.8488 8.74854 21.6912 8.5827C21.3019 8.30091 20.978 8.29465 20.5062 8.29813C20.4324 8.29769 20.3586 8.29725 20.2825 8.29679C20.0392 8.29569 19.7959 8.29642 19.5526 8.29727C19.3832 8.29721 19.2138 8.29685 19.0444 8.29654C18.6897 8.29608 18.335 8.29668 17.9803 8.29788C17.5708 8.29926 17.1613 8.29881 16.7518 8.29742C16.3995 8.29628 16.0471 8.29612 15.6948 8.29678C15.4847 8.29717 15.2746 8.29713 15.0645 8.29639C14.8302 8.29575 14.596 8.29673 14.3618 8.29813C14.258 8.29737 14.258 8.29737 14.152 8.29659C13.6646 8.30199 13.4566 8.38542 13.1023 8.72049ZM8.92936 16.4201C8.82551 16.526 8.72164 16.6319 8.61776 16.7377C8.45501 16.9048 8.29253 17.072 8.13036 17.2396C7.97337 17.4015 7.81543 17.5624 7.65736 17.7232C7.60885 17.7739 7.56034 17.8246 7.51036 17.8769C7.46493 17.9229 7.41949 17.969 7.37268 18.0164C7.33296 18.0574 7.29325 18.0984 7.25233 18.1406C7.13606 18.2202 7.13606 18.2202 7.00682 18.2111C6.81256 18.1259 6.66789 17.9777 6.50596 17.8423C6.2608 17.6966 6.04382 17.6985 5.76782 17.7367C5.47803 17.8224 5.26413 18.0231 5.10917 18.2785C5.05165 18.4219 5.03582 18.5307 5.03312 18.6848C5.03133 18.7307 5.02955 18.7767 5.0277 18.8241C5.11775 19.2955 5.57967 19.6458 5.90344 19.9682C5.98342 20.0497 5.98342 20.0497 6.06502 20.1328C6.11688 20.1847 6.16874 20.2366 6.22217 20.2901C6.26908 20.3371 6.31598 20.3842 6.3643 20.4327C6.64522 20.667 6.90152 20.7085 7.26207 20.6769C7.55389 20.5545 7.75152 20.4006 7.97504 20.1785C8.00613 20.1479 8.03723 20.1172 8.06926 20.0856C8.17111 19.985 8.27225 19.8836 8.37335 19.7822C8.44438 19.7115 8.51544 19.6408 8.58651 19.5701C8.73507 19.4222 8.88326 19.2739 9.03121 19.1253C9.22029 18.9356 9.41035 18.7468 9.60071 18.5584C9.7476 18.4127 9.89389 18.2664 10.04 18.12C10.1098 18.0502 10.1798 17.9806 10.2501 17.9112C10.3484 17.8138 10.4459 17.7157 10.5432 17.6173C10.5987 17.5618 10.6542 17.5063 10.7114 17.4491C10.8957 17.224 11.0276 16.99 11.0562 16.6944C11.0108 16.3935 10.9347 16.1862 10.7276 15.9526C9.9758 15.4366 9.48237 15.8447 8.92936 16.4201ZM13.0983 18.1376C12.9548 18.43 12.8682 18.719 12.9748 19.0386C13.1396 19.3509 13.3553 19.5578 13.689 19.669C13.7905 19.675 13.8922 19.6775 13.9939 19.6779C14.0567 19.6782 14.1195 19.6786 14.1842 19.679C14.253 19.679 14.3219 19.6791 14.3928 19.6792C14.4653 19.6795 14.5379 19.6798 14.6127 19.6801C14.8532 19.681 15.0938 19.6815 15.3344 19.6818C15.4592 19.6821 15.5839 19.6824 15.7087 19.6826C16.0563 19.6834 16.404 19.6838 16.7517 19.6841C17.201 19.6843 17.6502 19.6854 18.0995 19.6873C18.447 19.6886 18.7945 19.6893 19.142 19.6894C19.3495 19.6894 19.5569 19.6899 19.7643 19.6909C19.9959 19.692 20.2274 19.6919 20.4589 19.6915C20.5274 19.692 20.5958 19.6926 20.6664 19.6932C21.0622 19.691 21.3656 19.6663 21.6688 19.3833C21.9103 19.0676 21.9836 18.8716 21.9433 18.4722C21.8261 18.1405 21.6532 17.9813 21.3762 17.7793C21.1924 17.7181 21.074 17.708 20.8827 17.707C20.82 17.7066 20.7573 17.7061 20.6927 17.7057C20.6239 17.7055 20.5552 17.7053 20.4844 17.7052C20.3757 17.7045 20.3757 17.7045 20.2648 17.7039C20.0245 17.7027 19.7843 17.7019 19.544 17.7013C19.462 17.701 19.38 17.7008 19.2955 17.7005C18.9063 17.6993 18.5171 17.6984 18.1278 17.6979C17.6791 17.6973 17.2304 17.6956 16.7816 17.6931C16.4345 17.6912 16.0873 17.6902 15.7401 17.69C15.5329 17.6899 15.3257 17.6892 15.1185 17.6877C14.8871 17.6862 14.6558 17.6863 14.4244 17.6867C14.3562 17.6859 14.2879 17.6851 14.2176 17.6843C13.7309 17.6876 13.4319 17.7602 13.0983 18.1376Z" fill="#F1B037"/>
</svg>
