<svg width="128" height="46" viewBox="0 0 128 46" fill="none" xmlns="http://www.w3.org/2000/svg">
<g id="Layer_1" clip-path="url(#clip0_1174_18477)">
<path id="Vector" d="M17.1004 33.9721C17.0761 34.1728 17.0356 34.3655 17.0356 34.5663C17.0356 38.1875 17.0356 41.8007 17.0356 45.4219C17.0356 45.6066 17.0356 45.7832 17.0356 45.992H15.3602V35.313C13.5148 36.6459 11.7746 37.8984 9.99399 39.1831C9.79974 38.8379 9.59739 38.5247 9.4517 38.1955C9.40314 38.0911 9.4598 37.9065 9.52455 37.786C9.72689 37.4247 9.94543 37.0794 10.2206 36.6378C9.72689 36.6378 9.33029 36.6218 8.9337 36.6378C8.65851 36.6539 8.51282 36.5415 8.39141 36.3086C8.20526 35.9393 7.98672 35.578 7.7601 35.1685C7.52538 35.5539 7.29875 35.8831 7.11259 36.2283C6.9669 36.5013 6.78074 36.5897 6.48127 36.5656C6.10896 36.5415 5.73664 36.5656 5.2753 36.5656C5.48573 36.967 5.6638 37.3284 5.87424 37.6736C6.00374 37.8824 6.01993 38.043 5.87424 38.2598C5.64761 38.5809 5.45336 38.9423 5.21864 39.3357C5.60714 39.3598 5.94708 39.432 6.27083 39.3999C6.71599 39.3598 6.94262 39.5364 7.12878 39.9218C7.29065 40.2591 7.53347 40.5642 7.74391 40.8773C6.39224 41.8328 5.04058 42.7963 3.68891 43.7598C2.68528 44.4825 1.68164 45.2051 0.605166 45.984C0.588979 45.7511 0.572791 45.5905 0.572791 45.4299C0.572791 38.2276 0.572791 31.0253 0.564697 23.815C0.564697 23.4858 0.669917 23.2851 0.937013 23.0924C2.45865 22.0084 3.9641 20.9164 5.46955 19.8244C5.56667 19.7522 5.67999 19.696 5.77711 19.6317C5.80139 19.6558 5.80949 19.6638 5.82567 19.6719C6.34368 20.3222 6.55412 20.9726 5.86614 21.6551C5.77711 21.7354 5.73664 21.8639 5.67999 21.9763C5.6638 22.0004 5.67189 22.0325 5.6557 22.1288C5.99564 22.1449 6.33558 22.2011 6.65934 22.161C7.1045 22.1128 7.33922 22.2894 7.50919 22.6748C7.64678 22.98 7.83294 23.269 8.02719 23.6143C8.2781 23.2048 8.52091 22.8675 8.70707 22.4982C8.84467 22.2332 9.03082 22.169 9.31411 22.185C9.69452 22.2091 10.083 22.185 10.5201 22.185C10.3177 21.8077 10.1316 21.4383 9.91305 21.085C9.77545 20.8682 9.78355 20.7077 9.92924 20.4989C10.164 20.1617 10.3501 19.7923 10.6091 19.3587C10.1154 19.3587 9.7107 19.3427 9.31411 19.3587C9.0632 19.3748 8.9256 19.2945 8.8042 19.0697C8.60995 18.7003 8.35904 18.3631 8.13241 18.0098C8.21335 17.9134 8.27001 17.7769 8.37523 17.7047C13.9842 13.6418 19.6013 9.58704 25.2184 5.5242C25.2589 5.50011 25.2994 5.47603 25.3641 5.44391C30.5523 9.1936 35.7485 12.9513 40.9933 16.7412C40.5481 17.0704 40.1596 17.3594 39.763 17.6485C37.003 19.6398 34.2511 21.6391 31.4831 23.6143C31.1917 23.823 31.0946 24.0318 31.0946 24.3771C31.1026 30.7363 31.0946 37.0955 31.0946 43.4467C31.0946 43.6314 31.0946 43.8161 31.0946 44.0168C27.7194 44.6672 24.3848 45.3095 21.0016 45.9599V31.2341C20.8073 31.3545 20.6778 31.4268 20.5564 31.5071C19.5366 32.2458 18.5168 32.9845 17.497 33.7152C17.3755 33.8035 17.2379 33.8677 17.1004 33.94C17.0761 33.8436 17.0275 33.7393 17.0275 33.6429C17.0275 31.0173 17.0275 28.3837 17.0275 25.7581C17.0275 25.6537 17.0518 25.5493 17.0761 25.3968H19.9818V23.8391H15.3845V35.2488C15.9996 34.775 16.55 34.3495 17.1004 33.932V33.9721ZM20.9935 31.202C24.3605 28.7691 27.6709 26.3764 31.0703 23.9194C27.6466 23.261 24.3281 22.6186 20.9935 21.9763V31.202ZM8.011 23.6624C7.7601 24.0639 7.54156 24.3851 7.3635 24.7223C7.2259 24.9873 7.06403 25.0997 6.74028 25.0676C6.35177 25.0194 5.95518 25.0595 5.50192 25.0595C5.74474 25.5012 5.96327 25.8545 6.12515 26.2318C6.1899 26.3683 6.1818 26.5851 6.12515 26.7136C5.93089 27.091 5.69617 27.4523 5.41289 27.918C5.91471 27.918 6.3194 27.9421 6.71599 27.918C7.01546 27.8939 7.16115 28.0224 7.28256 28.2713C7.45253 28.6246 7.66297 28.9618 7.8815 29.3633C8.12432 28.9698 8.35094 28.6567 8.52901 28.3114C8.6747 28.0304 8.86895 27.918 9.1927 27.9421C9.56501 27.9662 9.93733 27.9421 10.3744 27.9421C10.1963 27.6129 10.0749 27.3399 9.90496 27.107C9.63786 26.7377 9.61358 26.4004 9.92114 26.0311C10.1235 25.7902 10.253 25.4931 10.4634 25.1398C9.95352 25.1398 9.54073 25.1639 9.12795 25.1318C8.97417 25.1158 8.77992 25.0033 8.69898 24.8829C8.46426 24.5216 8.27001 24.1362 8.0191 23.6705L8.011 23.6624ZM5.29148 33.6509C5.75283 33.6509 6.12515 33.667 6.48937 33.6509C6.82121 33.6349 7.03975 33.7473 7.17734 34.0604C7.33112 34.4057 7.54156 34.7269 7.752 35.1042C8.00291 34.7028 8.23763 34.3655 8.43188 33.9962C8.56138 33.7633 8.69898 33.667 8.98226 33.6911C9.38695 33.7232 9.79164 33.6991 10.2449 33.6991C10.0264 33.2896 9.80783 32.9524 9.65405 32.5911C9.5893 32.4305 9.5893 32.1816 9.66214 32.021C9.84021 31.6516 10.0749 31.3144 10.3339 30.8888C9.8483 30.8888 9.47598 30.8728 9.10367 30.8888C8.77182 30.9129 8.59376 30.7604 8.46426 30.4874C8.29429 30.1421 8.08385 29.8129 7.86532 29.4275C7.65488 29.7728 7.46062 30.0217 7.33112 30.2947C7.14497 30.7042 6.88596 30.8728 6.42462 30.8166C6.10086 30.7764 5.76092 30.8085 5.36433 30.8085C5.58286 31.218 5.75283 31.5633 5.95518 31.8845C6.10896 32.1254 6.10086 32.3261 5.94708 32.5589C5.72855 32.8721 5.54239 33.2093 5.2753 33.6509H5.29148ZM23.4945 34.0444C23.4945 33.9882 23.4783 33.9239 23.4702 33.8677C23.1869 33.8517 22.8955 33.8356 22.6122 33.8195C22.6122 33.8195 22.5961 33.7955 22.588 33.7714C22.6608 33.6911 22.7417 33.6108 22.8227 33.5305C22.4585 33.2254 22.3128 33.2093 22.1509 33.4422C21.8352 33.8757 21.9971 34.4217 22.5151 34.7429C22.6527 34.6225 22.7903 34.502 22.9522 34.3655C22.8308 34.2852 22.7498 34.229 22.6446 34.1568C22.9603 34.1166 23.2274 34.0845 23.4945 34.0444Z" fill="white"/>
<path id="Vector_2" d="M44.7326 14.0433C43.8828 14.6615 43.0734 15.2477 42.2559 15.8419C36.6065 11.7549 30.9651 7.68406 25.3075 3.58911C17.0842 9.53081 8.86896 15.4645 0.556615 21.4784C0.556615 20.7397 0.629459 20.0894 0.540427 19.4631C0.370457 18.2988 0.775148 17.5441 1.81925 16.9579C2.75813 16.428 3.5837 15.6893 4.48211 15.071C4.74921 14.8864 4.83015 14.6937 4.83015 14.3805C4.82205 11.49 4.83015 8.59941 4.83015 5.70082V5.12271H12.9725V8.92058C17.1489 5.90155 21.2282 2.95479 25.3237 0C31.7987 4.6811 38.2495 9.34613 44.7488 14.0433H44.7326Z" fill="white"/>
<path id="Vector_3" d="M85.2908 27.7734C84.9023 29.2107 84.5138 30.656 84.1253 32.0932C83.8097 33.2575 83.5021 34.4217 83.1865 35.5779C82.6846 37.3926 81.511 37.8824 79.7142 37.5371C78.8724 37.3765 78.3787 36.7663 78.0954 36.0035C77.7474 35.0641 77.4398 34.1086 77.1242 33.1531C76.0396 29.845 74.955 26.5289 73.8705 23.2128C73.83 23.0843 73.7976 22.9478 73.741 22.7712C73.9109 22.7631 74.0566 22.7391 74.2023 22.7391C75.3112 22.7391 76.42 22.7551 77.5208 22.731C77.885 22.723 78.0307 22.8515 78.1278 23.1807C78.8886 25.8303 79.6656 28.48 80.4507 31.1297C80.4912 31.2742 80.6045 31.4027 80.6855 31.5392C80.7745 31.3947 80.904 31.2662 80.9445 31.1136C81.511 29.0421 82.0614 26.9705 82.628 24.907C82.7089 24.6099 82.8141 24.3128 82.9355 24.0398C83.5426 22.6909 84.7566 22.1369 86.1973 22.5383C87.031 22.7712 87.5085 23.3653 87.7594 24.1281C88.1318 25.3004 88.4555 26.4968 88.7874 27.6851C89.103 28.8173 89.4025 29.9494 89.7182 31.0735C89.7667 31.2501 89.8962 31.4027 89.9852 31.5713C90.0824 31.4188 90.2281 31.2742 90.2766 31.1056C91.0374 28.4881 91.7983 25.8625 92.5429 23.2369C92.6481 22.8595 92.8019 22.723 93.2066 22.7391C94.4368 22.7712 95.6671 22.7471 96.9621 22.7471C96.6788 23.6223 96.4198 24.4573 96.1527 25.2843C95.0682 28.6326 93.9836 31.9728 92.899 35.321C92.8343 35.5137 92.7533 35.6984 92.6886 35.8831C92.0492 37.6254 90.4952 37.8904 89.0626 37.4648C88.1965 37.2079 87.8161 36.4772 87.5895 35.6823C87.1686 34.213 86.7801 32.7356 86.3754 31.2662C86.0517 30.0939 85.736 28.9216 85.4203 27.7574C85.3799 27.7574 85.3394 27.7574 85.2989 27.7654L85.2908 27.7734Z" fill="white"/>
<path id="Vector_4" d="M114.016 37.3926V22.7712C114.194 22.7631 114.356 22.7471 114.526 22.7471C117.018 22.7471 119.511 22.731 122.004 22.7471C122.984 22.7471 123.955 22.8916 124.869 23.3091C126.262 23.9515 126.82 25.1077 126.869 26.553C126.917 27.8939 126.383 28.9457 125.193 29.6443C125.088 29.7085 124.983 29.7727 124.878 29.837C124.869 29.837 124.869 29.861 124.861 29.8771C125.307 30.1822 125.768 30.4552 126.181 30.7924C127.508 31.8603 127.727 33.2735 127.314 34.8151C126.909 36.3327 125.719 36.9911 124.271 37.2641C123.817 37.3524 123.34 37.3926 122.878 37.3926C120.07 37.4006 117.269 37.3926 114.461 37.3926C114.323 37.3926 114.186 37.3765 114.008 37.3685L114.016 37.3926ZM117.941 31.6676V34.3334C119.39 34.3334 120.806 34.3575 122.215 34.3173C122.749 34.3013 123.129 33.956 123.283 33.4261C123.558 32.4626 122.935 31.6998 121.818 31.6757C120.823 31.6516 119.827 31.6757 118.823 31.6757C118.532 31.6757 118.241 31.6757 117.941 31.6757V31.6676ZM117.925 28.761C119.131 28.761 120.296 28.8253 121.454 28.7369C122.288 28.6727 122.765 27.8377 122.684 26.8902C122.627 26.2639 122.093 25.8384 121.276 25.8143C120.248 25.7902 119.22 25.8143 118.192 25.8143C118.103 25.8143 118.022 25.8544 117.933 25.8785V28.753L117.925 28.761Z" fill="white"/>
<path id="Vector_5" d="M70.463 29.853C71.0295 30.2786 71.5718 30.648 72.0736 31.0735C73.7329 32.4706 73.5467 36.2685 70.641 37.0875C69.9773 37.2721 69.2651 37.4006 68.5771 37.4086C65.6957 37.4408 62.8062 37.4247 59.9248 37.4247C59.8439 37.4247 59.771 37.4086 59.6577 37.4006V22.7792C59.7872 22.7712 59.9248 22.7551 60.0624 22.7551C62.5877 22.7551 65.1129 22.7391 67.6382 22.7551C68.6499 22.7632 69.6536 22.9077 70.5844 23.3734C71.7418 23.9595 72.3083 24.915 72.4459 26.1756C72.6159 27.7895 72.0413 29.018 70.5763 29.7968C70.5358 29.8209 70.4953 29.845 70.463 29.8611V29.853ZM63.5427 34.3334C64.9915 34.3334 66.3918 34.3575 67.792 34.3174C68.3262 34.3013 68.7147 33.9801 68.8766 33.4502C69.1679 32.4706 68.5447 31.6918 67.4116 31.6757C66.2299 31.6596 65.0401 31.6757 63.8584 31.6757C63.7532 31.6757 63.6561 31.7078 63.5427 31.7239V34.3334ZM63.567 25.8304V28.7611C64.7487 28.7611 65.9061 28.8173 67.0474 28.737C67.8406 28.6808 68.3424 27.918 68.3181 27.0508C68.3019 26.3603 67.8648 25.8705 67.0555 25.8384C65.9061 25.7822 64.7568 25.8223 63.567 25.8223V25.8304Z" fill="white"/>
<path id="Vector_6" d="M58.1766 37.4247C56.9949 37.4247 55.8698 37.4247 54.7529 37.4247C54.0676 37.4247 53.6036 37.1089 53.3608 36.4772C53.1908 36.0276 53.0127 35.586 52.867 35.1283C52.778 34.8393 52.608 34.767 52.3166 34.767C50.4955 34.775 48.6663 34.7831 46.8452 34.767C46.5539 34.767 46.4082 34.8473 46.311 35.1363C46.0844 35.8108 45.8254 36.4692 45.5502 37.1276C45.5017 37.2481 45.3317 37.4086 45.2103 37.4086C43.8262 37.4247 42.4422 37.4247 40.9934 37.4247C41.0743 37.2079 41.131 37.0393 41.2038 36.8707C42.9683 32.7918 44.7408 28.7129 46.5134 24.634C47.3309 22.7471 49.1763 22.0164 51.0945 22.8113C51.7986 23.1004 52.2519 23.6384 52.5433 24.3128C53.3931 26.2479 54.2187 28.199 55.0605 30.1421C56.0398 32.4144 57.0192 34.6787 57.9985 36.951C58.0552 37.0875 58.1037 37.232 58.1847 37.4327L58.1766 37.4247ZM51.5558 31.6677C50.9812 30.1582 50.447 28.737 49.8966 27.3158C49.848 27.1793 49.6943 27.0829 49.5971 26.9625C49.5 27.0829 49.3624 27.1953 49.3058 27.3399C48.8282 28.5443 48.375 29.7567 47.9136 30.9611C47.8246 31.1859 47.7436 31.4107 47.6546 31.6677H51.5639H51.5558Z" fill="white"/>
<path id="Vector_7" d="M95.3594 37.4167C95.6751 36.678 95.9584 36.0115 96.2416 35.3531C97.7876 31.7881 99.3739 28.2311 100.863 24.642C101.778 22.442 103.704 22.2734 105.363 22.7712C106.124 22.996 106.618 23.5821 106.917 24.2807C108.787 28.6005 110.641 32.9283 112.502 37.248C112.51 37.2721 112.51 37.3042 112.526 37.3765C112.413 37.3926 112.3 37.4167 112.186 37.4167C110.956 37.4167 109.726 37.4167 108.496 37.4167C108.196 37.4167 108.059 37.3203 107.961 37.0393C107.735 36.3809 107.46 35.7466 107.233 35.0882C107.136 34.8152 106.982 34.7589 106.715 34.7589C104.878 34.767 103.04 34.767 101.203 34.7589C100.928 34.7589 100.782 34.8392 100.693 35.1042C100.459 35.7706 100.208 36.4371 99.9324 37.0955C99.8758 37.232 99.6896 37.4006 99.5601 37.4006C98.1922 37.4247 96.8244 37.4167 95.3513 37.4167H95.3594ZM102.021 31.6596H105.93C105.355 30.1421 104.805 28.6727 104.238 27.2034C104.198 27.107 104.076 26.9785 103.996 26.9705C103.906 26.9705 103.777 27.0909 103.737 27.1873C103.162 28.6486 102.611 30.118 102.021 31.6596Z" fill="white"/>
<path id="Vector_8" d="M7.72778 40.8693C7.9706 40.4116 8.15676 39.8977 8.4967 39.5284C8.65857 39.3517 9.11992 39.4561 9.47605 39.5284C8.89329 39.97 8.31054 40.4116 7.72778 40.8532V40.8612V40.8693Z" fill="white"/>
<path id="Vector_9" d="M8.11627 18.0339C7.96249 18.2587 7.79252 18.4835 7.65493 18.7164C7.22595 19.4069 7.22595 19.4149 6.29517 19.158C6.9022 18.7886 7.50924 18.4113 8.12437 18.0419L8.11627 18.0339Z" fill="white"/>
</g>
<defs>
<clipPath id="clip0_1174_18477">
<rect width="127" height="46" fill="white" transform="translate(0.5)"/>
</clipPath>
</defs>
</svg>
