<svg width="19" height="15" viewBox="0 0 19 15" fill="none" xmlns="http://www.w3.org/2000/svg">
<g id="Group 9">
<path id="Vector" d="M17.5332 0.540436C17.6457 0.609652 17.7521 0.681546 17.8574 0.757428C17.8855 0.776282 17.9136 0.795136 17.9426 0.814561C18.3573 1.11158 18.6506 1.54681 18.8273 1.96107C18.842 1.99554 18.8567 2.03 18.8719 2.06551C19.1377 2.81156 18.9763 3.59882 18.5132 4.27006C18.0283 4.9343 17.2635 5.34391 16.3597 5.57529C16.1804 5.61138 16.009 5.62795 15.8253 5.64496C15.8254 5.68793 15.8255 5.7309 15.8257 5.77517C15.8266 6.18494 15.8273 6.5947 15.8277 7.00447C15.828 7.21501 15.8283 7.42555 15.8288 7.6361C15.8333 9.45012 15.8333 9.45012 15.7792 10.2772C15.8649 10.2755 15.8649 10.2755 15.9524 10.2737C16.7522 10.2593 17.4507 10.3504 18.0768 10.7741C18.626 11.1929 18.9613 11.7328 18.977 12.3393C18.9791 12.4689 18.9809 12.5984 18.982 12.728C18.9828 12.7962 18.984 12.8645 18.9858 12.9328C18.9883 13.0316 18.9893 13.1304 18.99 13.2293C18.9916 13.2749 18.9916 13.2749 18.9932 13.3214C18.9925 13.4699 18.9795 13.5431 18.8755 13.6706C18.6817 13.7693 18.5342 13.7654 18.3083 13.76C18.2676 13.7598 18.2269 13.7595 18.185 13.7592C18.0556 13.7582 17.9262 13.7559 17.7968 13.7536C17.7089 13.7527 17.6209 13.7519 17.533 13.7511C17.3178 13.7491 17.1027 13.746 16.8876 13.7422C16.8889 13.684 16.8889 13.684 16.8902 13.6246C16.8909 13.5725 16.8916 13.5203 16.8923 13.4682C16.8932 13.4301 16.8932 13.4301 16.8942 13.3911C16.8994 12.8365 16.609 12.3618 16.1486 11.955C16.1486 11.9309 16.1486 11.9068 16.1486 11.882C16.1214 11.8721 16.0942 11.8621 16.0662 11.8518C15.9671 11.8104 15.8912 11.7651 15.8051 11.7088C15.2129 11.3527 14.5227 11.236 13.7932 11.2984C13.1012 11.3997 12.4708 11.6798 12.0379 12.1228C11.5869 12.6579 11.5278 13.0859 11.4841 13.7422C10.1429 13.7422 8.80169 13.7422 7.41987 13.7422C7.41987 13.5376 7.41987 13.333 7.41987 13.1222C7.27092 12.534 6.94962 12.0245 6.31389 11.6769C5.67767 11.3457 4.9443 11.2104 4.1888 11.3221C3.49652 11.454 2.88913 11.7483 2.48685 12.2194C2.19657 12.6042 2.0635 12.9835 2.03656 13.4253C2.03357 13.4711 2.03357 13.4711 2.03051 13.5177C2.02564 13.5926 2.02098 13.6674 2.01635 13.7422C1.77065 13.7467 1.52498 13.75 1.27922 13.7522C1.19567 13.7531 1.11213 13.7544 1.0286 13.756C0.908325 13.7582 0.788116 13.7592 0.667818 13.76C0.630621 13.761 0.593426 13.7619 0.555102 13.7629C0.519984 13.7629 0.484864 13.7629 0.448681 13.7629C0.418017 13.7633 0.387353 13.7637 0.355759 13.7641C0.197131 13.7273 0.129855 13.6623 0.0304438 13.5598C0.00782364 13.4517 -0.000775528 13.3647 0.001297 13.2569C0.00080131 13.2118 0.000802015 13.2118 0.000296311 13.1659C-0.000482781 13.0669 0.000411187 12.968 0.00139848 12.869C0.0013602 12.8001 0.0012459 12.7312 0.00106022 12.6623C0.000928284 12.518 0.00160736 12.3738 0.00287555 12.2295C0.0044507 12.0446 0.00417131 11.8597 0.00330683 11.6748C0.00281882 11.5325 0.00323187 11.3903 0.00392557 11.2481C0.00416495 11.1799 0.00414203 11.1117 0.00385369 11.0436C0.00360203 10.9483 0.00454227 10.8531 0.00580715 10.7578C0.00550576 10.7296 0.00520437 10.7015 0.00489384 10.6724C0.00776515 10.5453 0.0174816 10.4731 0.115691 10.3702C0.315073 10.2568 0.515958 10.2724 0.751165 10.2736C0.789923 10.2737 0.82868 10.2737 0.868612 10.2738C0.992371 10.274 1.11613 10.2744 1.23988 10.2749C1.3238 10.2751 1.40772 10.2752 1.49164 10.2754C1.69734 10.2758 1.90303 10.2764 2.10872 10.2772C2.11668 10.2576 2.12465 10.238 2.13286 10.2178C2.21991 10.0071 2.31797 9.80133 2.42281 9.59585C2.43938 9.56326 2.45595 9.53068 2.47303 9.4971C2.50793 9.42861 2.54291 9.36013 2.57794 9.29168C2.63085 9.18814 2.68329 9.08446 2.73572 8.98078C3.08279 8.29885 3.44306 7.66246 4.33998 7.34086C4.67622 7.23495 4.97616 7.1726 5.33955 7.17175C5.39353 7.17154 5.44752 7.17133 5.50314 7.17112C5.56173 7.17108 5.62032 7.17104 5.68069 7.171C5.74353 7.17083 5.80637 7.17064 5.86922 7.17045C6.03946 7.16997 6.20971 7.16973 6.37996 7.16957C6.48655 7.16946 6.59315 7.16932 6.69975 7.16915C7.03393 7.16865 7.36811 7.1683 7.70229 7.16816C8.0868 7.168 8.4713 7.16736 8.8558 7.1663C9.15382 7.16551 9.45184 7.16514 9.74986 7.16509C9.92747 7.16506 10.1051 7.16485 10.2827 7.16419C10.45 7.16358 10.6173 7.16351 10.7847 7.16383C10.8745 7.16387 10.9642 7.16337 11.054 7.16285C11.8073 7.16565 12.402 7.33564 12.9493 7.74878C13.2183 7.96557 13.3947 8.17712 13.5475 8.45447C13.5634 8.48302 13.5793 8.51157 13.5957 8.54098C13.7842 8.88181 13.962 9.22607 14.1396 9.57049C14.1735 9.63603 14.2074 9.70157 14.2414 9.76711C14.3231 9.92493 14.4046 10.0828 14.486 10.2407C14.6384 10.2527 14.7908 10.2648 14.9478 10.2772C14.9477 10.2418 14.9476 10.2064 14.9475 10.1699C14.9445 9.19546 14.9537 8.22136 14.9693 7.24703C14.9721 7.06526 14.9749 6.88349 14.9776 6.70171C14.983 6.34946 14.9884 5.99721 14.994 5.64496C14.9562 5.64023 14.9184 5.6355 14.8794 5.63062C14.8297 5.62427 14.7799 5.61791 14.7287 5.61136C14.6794 5.60513 14.6301 5.59889 14.5794 5.59246C13.7301 5.46802 12.9457 5.01336 12.4568 4.45955C11.8981 3.78173 11.698 2.99876 11.9012 2.20095C12.0483 1.71623 12.353 1.27054 12.7772 0.903325C12.813 0.870036 12.813 0.870036 12.8495 0.836075C13.2256 0.508533 13.7767 0.276917 14.3013 0.137368C14.3449 0.125755 14.3885 0.114141 14.4335 0.102176C15.498 -0.134444 16.6334 0.0514541 17.5332 0.540436ZM14.6707 1.45044C14.6141 1.57813 14.6184 1.70337 14.6179 1.83768C14.6177 1.8616 14.6175 1.88552 14.6174 1.91016C14.6169 1.98902 14.6169 2.06787 14.6168 2.14672C14.6167 2.20168 14.6165 2.25665 14.6163 2.31161C14.6161 2.42674 14.616 2.54187 14.616 2.65699C14.616 2.80433 14.6154 2.95167 14.6146 3.099C14.6141 3.2125 14.614 3.32599 14.614 3.43948C14.6139 3.49379 14.6137 3.54811 14.6134 3.60242C14.6129 3.67845 14.6131 3.75447 14.6133 3.83051C14.6133 3.87372 14.6132 3.91694 14.6131 3.96146C14.6279 4.11064 14.6676 4.21564 14.7949 4.32733C14.9525 4.38791 15.0581 4.36543 15.2249 4.33189C15.3549 4.26005 15.3806 4.19665 15.4097 4.07657C15.4134 4.00272 15.4147 3.92879 15.4142 3.85488C15.414 3.79141 15.414 3.79141 15.4137 3.72665C15.4134 3.68264 15.413 3.63863 15.4126 3.59329C15.4124 3.54872 15.4122 3.50415 15.4119 3.45822C15.4114 3.34823 15.4106 3.23824 15.4097 3.12825C15.4501 3.12909 15.4906 3.12994 15.5323 3.13081C15.5858 3.13147 15.6393 3.13213 15.6944 3.13281C15.7472 3.13365 15.8001 3.1345 15.8545 3.13537C16.1829 3.12033 16.4285 2.99444 16.6538 2.81138C16.859 2.60752 16.953 2.38117 16.9309 2.12065C16.8654 1.81733 16.6865 1.63976 16.3987 1.43818C16.1055 1.27856 15.7966 1.29119 15.453 1.29086C15.3785 1.28952 15.3785 1.28952 15.3024 1.28816C14.9445 1.28301 14.9445 1.28301 14.6707 1.45044ZM4.12134 8.29459C3.92783 8.48632 3.80602 8.68843 3.68763 8.91395C3.66826 8.95005 3.64889 8.98615 3.62893 9.02334C3.56809 9.13716 3.50804 9.25122 3.44805 9.36532C3.40735 9.44179 3.36664 9.51825 3.32592 9.59471C3.28767 9.66716 3.24948 9.73963 3.21136 9.81213C3.19333 9.8462 3.17531 9.88027 3.15673 9.91537C3.14035 9.94694 3.12397 9.9785 3.10709 10.011C3.09261 10.0387 3.07814 10.0664 3.06322 10.095C3.02507 10.1723 3.02507 10.1723 3.0324 10.2772C4.63267 10.2772 6.23294 10.2772 7.88171 10.2772C7.88171 9.47073 7.88171 8.66429 7.88171 7.83341C7.44354 7.8304 7.00537 7.82739 6.55392 7.82429C6.41671 7.82296 6.2795 7.82163 6.13813 7.82026C6.02777 7.81984 5.9174 7.81947 5.80704 7.81916C5.72304 7.81804 5.72304 7.81804 5.63735 7.8169C5.04481 7.81671 4.51954 7.93091 4.12134 8.29459ZM8.71302 7.83341C8.71302 8.63985 8.71302 9.44629 8.71302 10.2772C10.3133 10.2772 11.9136 10.2772 13.5623 10.2772C13.3827 9.89886 13.2019 9.52246 13.0081 9.14876C12.9967 9.12622 12.9853 9.10368 12.9735 9.08047C12.7288 8.59811 12.4425 8.15311 11.816 7.92687C11.5947 7.85587 11.4065 7.82886 11.1668 7.82927C11.0838 7.82927 11.0838 7.82927 10.9992 7.82928C10.9124 7.82956 10.9124 7.82956 10.8238 7.82985C10.7704 7.82988 10.717 7.82992 10.662 7.82996C10.4626 7.83015 10.2633 7.83066 10.0639 7.83113C9.39521 7.83226 9.39521 7.83226 8.71302 7.83341Z" fill="#4E4D4D"/>
<path id="Vector_2" d="M6.0667 12.2008C6.44348 12.4823 6.69868 12.8583 6.73872 13.2688C6.75258 13.7715 6.60382 14.1648 6.1735 14.542C5.91537 14.7393 5.63663 14.8568 5.29601 14.9432C5.26833 14.9503 5.24064 14.9573 5.21212 14.9646C4.62973 15.0518 4.05937 14.9698 3.56195 14.719C3.14053 14.4678 2.8346 14.1204 2.75589 13.7031C2.71209 13.1853 2.79802 12.7886 3.21124 12.3685C3.98615 11.6795 5.15401 11.7147 6.0667 12.2008Z" fill="#4E4D4D"/>
<path id="Vector_3" d="M15.408 12.1471C15.4383 12.1666 15.4686 12.186 15.4998 12.206C15.5431 12.2334 15.5431 12.2334 15.5873 12.2614C15.9536 12.5205 16.1593 12.9073 16.2041 13.2892C16.2256 13.6951 16.0815 14.0676 15.7769 14.3944C15.7512 14.4253 15.7255 14.4561 15.699 14.4879C15.3149 14.8076 14.8379 14.9769 14.2831 14.9952C13.6903 15.0014 13.2062 14.8611 12.7675 14.5403C12.309 14.1613 12.1975 13.7548 12.2079 13.2478C12.229 12.844 12.4862 12.4881 12.8558 12.2151C13.5932 11.7361 14.629 11.6939 15.408 12.1471Z" fill="#4E4D4D"/>
</g>
</svg>
