<svg width="19" height="15" viewBox="0 0 19 15" fill="none" xmlns="http://www.w3.org/2000/svg">
<g id="Group 8">
<path id="Vector" d="M12.5125 0.193721C12.8281 0.424096 13.0232 0.697324 13.1045 1.08196C13.1443 1.42597 13.108 1.71039 12.9422 2.01521C12.9278 2.04257 12.9134 2.06993 12.8986 2.09811C12.7097 2.39662 12.3829 2.56361 12.0901 2.74559C12.0127 2.79407 11.9354 2.84257 11.8581 2.89109C11.6912 2.99558 11.5241 3.09984 11.357 3.20397C11.1436 3.33708 10.9303 3.47024 10.7181 3.6053C10.69 3.62287 10.6619 3.64044 10.6329 3.65854C10.4226 3.79333 10.3272 3.87309 10.2662 4.1171C10.2558 4.17804 10.2458 4.23907 10.2363 4.30016C10.2284 4.34367 10.2284 4.34367 10.2203 4.38805C10.2037 4.48971 10.1925 4.59067 10.183 4.69325C10.1788 4.73761 10.1746 4.78198 10.1703 4.8277C10.1477 5.281 10.2799 5.6251 10.4518 6.03733C10.4939 6.14083 10.5357 6.24445 10.5775 6.34808C10.6061 6.41915 10.6349 6.49016 10.6638 6.56113C10.7644 6.81014 10.8549 7.06142 10.9414 7.31565C10.9773 7.4186 11.0132 7.52151 11.0492 7.62441C11.0717 7.69011 11.0937 7.75603 11.1149 7.82217C11.2208 8.18748 11.2208 8.18748 11.4698 8.4551C11.5946 8.49567 11.7181 8.52151 11.8466 8.54799C11.9233 8.57993 11.999 8.61433 12.0735 8.65117C12.1094 8.66878 12.1454 8.68638 12.1824 8.70451C12.2181 8.72232 12.2537 8.74013 12.2904 8.75848C12.3634 8.79478 12.4365 8.83087 12.5097 8.86674C12.557 8.89037 12.557 8.89037 12.6052 8.91447C13.0162 9.08706 13.574 9.03265 13.9842 8.88924C14.1723 8.80937 14.3534 8.71779 14.5348 8.62382C15.1926 8.28542 15.9282 8.26027 16.6346 8.46684C16.8924 8.55781 17.1344 8.67515 17.3777 8.79906C17.636 8.92938 17.8521 8.99302 18.141 9.00955C18.2927 9.02074 18.3726 9.0313 18.5088 9.10338C18.6011 9.22121 18.6229 9.29097 18.6229 9.44067C18.5671 9.55748 18.5113 9.6334 18.42 9.7247C18.296 9.73691 18.296 9.73691 18.141 9.73738C18.0909 9.73806 18.0408 9.73874 17.9892 9.73944C17.5749 9.71833 17.2142 9.56407 16.8502 9.37727C16.2962 9.09419 15.7489 8.95914 15.1324 9.14919C14.9501 9.22166 14.777 9.31042 14.6029 9.4005C13.9015 9.76228 13.1166 9.85405 12.3542 9.61946C12.1704 9.54578 12.0009 9.45406 11.8286 9.35714C11.291 9.0592 10.704 8.9836 10.1098 9.14919C9.92284 9.21843 9.74863 9.30846 9.57203 9.4005C8.92325 9.73654 8.14217 9.85384 7.43249 9.6357C7.18765 9.54647 6.95231 9.4306 6.71835 9.31635C6.20407 9.06753 5.69436 8.9904 5.13349 9.14364C4.93839 9.21611 4.75476 9.308 4.56828 9.40009C3.84774 9.75417 3.13024 9.83301 2.3518 9.60297C2.09462 9.51209 1.85362 9.39526 1.61129 9.27075C1.34537 9.13625 1.12103 9.07897 0.822585 9.06027C0.684526 9.04838 0.604971 9.03394 0.477687 8.97404C0.383735 8.84445 0.379883 8.7543 0.377197 8.59744C0.418074 8.46087 0.486939 8.41814 0.607024 8.34511C0.733983 8.32498 0.733983 8.32498 0.873305 8.32736C0.941171 8.32744 0.941171 8.32744 1.01041 8.32752C1.11106 8.33287 1.18977 8.34988 1.28637 8.38131C1.51822 8.45658 1.66471 8.48986 1.88977 8.38188C1.96773 8.33731 2.0448 8.29114 2.12102 8.24367C2.16272 8.21941 2.20442 8.19515 2.24738 8.17015C2.33437 8.11946 2.42101 8.06816 2.50729 8.01628C2.70773 7.89632 2.91154 7.78248 3.11514 7.66799C3.15387 7.64597 3.19259 7.62395 3.23248 7.60126C3.50137 7.44849 3.77332 7.30299 4.04781 7.1606C4.30408 7.02689 4.55556 6.8855 4.80666 6.74235C5.11951 6.56409 5.43436 6.39144 5.75366 6.22506C6.01162 6.09051 6.26791 5.95307 6.52355 5.81417C6.57989 5.78372 6.57989 5.78372 6.63736 5.75266C6.73774 5.69796 6.83734 5.64206 6.93692 5.58592C7.0062 5.54874 7.0062 5.54874 7.07687 5.51079C7.30676 5.31717 7.32951 4.98115 7.36899 4.69816C7.38061 4.62063 7.39223 4.54309 7.40386 4.46556C7.42148 4.34524 7.43893 4.2249 7.45617 4.10452C7.60826 3.05089 7.89599 2.20278 8.76285 1.5283C8.8591 1.4633 8.95851 1.40542 9.05956 1.34824C9.08846 1.33156 9.11736 1.31487 9.14713 1.29768C9.21221 1.26015 9.27737 1.22276 9.34259 1.18548C9.50968 1.08992 9.67632 0.993573 9.84302 0.897326C9.93437 0.844623 10.0257 0.791987 10.1172 0.73942C10.3189 0.623369 10.5203 0.506947 10.72 0.387567C10.7671 0.359479 10.7671 0.359479 10.8151 0.330824C10.8717 0.296954 10.9281 0.262893 10.9844 0.228591C11.4531 -0.0520129 12.035 -0.0866121 12.5125 0.193721Z" fill="#4E4D4D"/>
<path id="Vector_2" d="M14.445 3.92237C14.9081 4.30364 15.2054 4.79109 15.2657 5.39425C15.3073 6.03392 15.1851 6.64045 14.7682 7.14707C14.3156 7.62517 13.7337 7.84333 13.0806 7.86841C12.4971 7.8587 11.9869 7.63901 11.5666 7.23694C11.1193 6.75907 10.929 6.23867 10.9362 5.5872C10.9577 5.00595 11.1961 4.5156 11.5885 4.09165C11.8684 3.83811 12.2098 3.64429 12.5785 3.55718C12.6094 3.5498 12.6404 3.54243 12.6723 3.53483C13.3022 3.42954 13.9176 3.56633 14.445 3.92237Z" fill="#4E4D4D"/>
<path id="Vector_3" d="M1.84693 13.3188C1.96495 13.3779 2.0819 13.4384 2.1982 13.5008C2.71655 13.7774 3.23783 13.8397 3.81171 13.7011C4.08077 13.611 4.32718 13.4832 4.57759 13.3511C5.17129 13.0516 5.84733 13.0087 6.48974 13.1736C6.81047 13.2834 7.11022 13.4406 7.40984 13.5976C7.89384 13.8234 8.42096 13.8288 8.92432 13.6603C9.19862 13.5498 9.46092 13.4142 9.72269 13.2771C10.3098 13.0032 10.9927 13.0412 11.6024 13.2142C11.7815 13.2868 11.9525 13.3727 12.1248 13.4602C12.7003 13.7379 13.1966 13.8752 13.834 13.7011C13.9886 13.6439 14.1337 13.573 14.2804 13.4982C14.998 13.1366 15.7111 12.968 16.5121 13.1736C16.8328 13.2834 17.1326 13.4406 17.4322 13.5976C17.7113 13.7278 17.9857 13.7612 18.289 13.7921C18.4376 13.8272 18.4916 13.8631 18.5815 13.9851C18.611 14.0964 18.6043 14.1972 18.5815 14.3097C18.5068 14.4176 18.4578 14.4605 18.3323 14.4979C17.8247 14.5624 17.343 14.3876 16.902 14.1565C16.3344 13.8608 15.7978 13.7273 15.1731 13.904C14.9287 13.991 14.6966 14.1002 14.4661 14.2185C13.8308 14.5441 13.1227 14.5943 12.4316 14.4026C12.2986 14.3522 12.1725 14.2902 12.045 14.2273C11.5033 13.9474 11.5033 13.9474 10.9126 13.8228C10.8615 13.8186 10.8105 13.8144 10.7579 13.8101C10.2621 13.8292 9.87045 14.0054 9.44158 14.2319C8.83298 14.5514 8.10276 14.5898 7.44328 14.4086C7.2424 14.3417 7.06618 14.251 6.88282 14.1474C6.32954 13.8357 5.74945 13.7442 5.13012 13.8965C4.94223 13.9602 4.77678 14.0505 4.60452 14.1478C3.98593 14.4944 3.21498 14.5876 2.52341 14.4213C2.45187 14.3993 2.38078 14.3757 2.31039 14.3503C2.27765 14.339 2.2449 14.3277 2.21117 14.3161C2.03167 14.2491 1.86261 14.1673 1.69249 14.0793C1.37683 13.9164 1.10983 13.8323 0.755811 13.8076C0.628922 13.7956 0.570617 13.7852 0.459097 13.7188C0.378998 13.5768 0.375819 13.4547 0.403305 13.2953C0.643789 12.8487 1.49328 13.1481 1.84693 13.3188Z" fill="#4E4D4D"/>
<path id="Vector_4" d="M0.888408 10.7199C0.919157 10.7204 0.949906 10.721 0.981587 10.7215C1.42924 10.7378 1.79084 10.8968 2.17624 11.1107C2.69342 11.3968 3.23608 11.4655 3.81227 11.3241C4.07774 11.2403 4.32671 11.1064 4.57439 10.981C5.15895 10.6873 5.88324 10.6178 6.5209 10.7959C6.79317 10.8979 7.05614 11.0327 7.31487 11.165C7.8023 11.4093 8.30366 11.4591 8.83137 11.3157C9.05103 11.2371 9.25463 11.1292 9.46125 11.0217C9.88653 10.8009 10.239 10.7322 10.7155 10.73C10.7592 10.7292 10.8029 10.7283 10.848 10.7275C11.2772 10.7254 11.633 10.8178 12.0088 11.0217C12.6195 11.3393 13.1731 11.4853 13.8566 11.3157C14.0445 11.2514 14.2112 11.1614 14.3838 11.0644C15.0017 10.7174 15.7342 10.6321 16.432 10.765C16.6986 10.8409 16.9301 10.9725 17.1699 11.1079C17.543 11.3119 17.9657 11.3827 18.3826 11.4466C18.48 11.4765 18.5213 11.5108 18.5822 11.5923C18.6085 11.8681 18.6085 11.8681 18.5289 12.0158C18.3909 12.1436 18.2317 12.1311 18.0542 12.128C17.5773 12.0956 17.2028 11.93 16.7887 11.7108C16.4498 11.5373 16.1544 11.4627 15.7774 11.4604C15.7447 11.4595 15.7121 11.4587 15.6784 11.4578C15.1959 11.4548 14.809 11.6623 14.3888 11.8787C14.0166 12.064 13.6607 12.1358 13.2464 12.1299C13.2167 12.1295 13.1869 12.1291 13.1563 12.1287C12.6564 12.1177 12.2889 11.9741 11.8461 11.754C11.7355 11.6992 11.6239 11.6466 11.5118 11.5948C11.4789 11.5794 11.4461 11.5639 11.4122 11.548C10.992 11.3815 10.3924 11.4138 9.97844 11.5756C9.80569 11.6579 9.6379 11.7485 9.47048 11.841C8.87031 12.1694 8.14683 12.2033 7.48775 12.046C7.26121 11.9711 7.05467 11.8635 6.84424 11.752C6.31814 11.4734 5.77421 11.3823 5.18394 11.4954C5.07299 11.534 4.97211 11.5794 4.86742 11.6328C4.81564 11.6591 4.76386 11.6853 4.71208 11.7116C4.62744 11.7546 4.54282 11.7977 4.45836 11.841C4.13785 12.003 3.80628 12.0973 3.44725 12.1197C3.41497 12.1219 3.3827 12.124 3.34945 12.1262C2.7298 12.1472 2.19177 11.9418 1.64921 11.6658C1.40082 11.5403 1.18638 11.4729 0.908696 11.4528C0.729092 11.4389 0.598061 11.4092 0.444605 11.3082C0.381115 11.1812 0.375746 11.04 0.404029 10.9025C0.531485 10.7162 0.678197 10.7145 0.888408 10.7199Z" fill="#4E4D4D"/>
</g>
</svg>
