<svg width="18" height="18" viewBox="0 0 18 18" fill="none" xmlns="http://www.w3.org/2000/svg">
<path id="Vector" d="M12.0855 1.87392C12.2305 2.00661 12.3708 2.14332 12.5097 2.28241C12.5303 2.30142 12.5509 2.32044 12.5722 2.34002C13.7922 3.48258 14.5014 5.31548 14.5561 6.96266C14.5589 7.08665 14.5595 7.21057 14.5591 7.33459C14.5591 7.37407 14.5591 7.37407 14.5591 7.41436C14.5565 8.18565 14.4396 8.92447 14.1949 9.65657C14.1825 9.69377 14.1825 9.69377 14.1699 9.73172C14.0726 10.0191 13.9527 10.2949 13.824 10.5696C13.8113 10.5969 13.7985 10.6242 13.7853 10.6523C13.7083 10.8128 13.6236 10.9583 13.5188 11.1025C13.4845 11.1661 13.4845 11.1661 13.5159 11.23C13.5753 11.3273 13.6463 11.3985 13.7272 11.4788C13.7441 11.4956 13.7609 11.5124 13.7782 11.5297C13.8346 11.5859 13.8912 11.6418 13.9479 11.6977C13.9884 11.738 14.0288 11.7782 14.0693 11.8185C14.1565 11.9053 14.2438 11.9919 14.3312 12.0785C14.4695 12.2155 14.6075 12.3529 14.7455 12.4903C15.1378 12.8811 15.5306 13.2714 15.9237 13.6614C16.1408 13.8769 16.3577 14.0925 16.5743 14.3085C16.7111 14.4449 16.8483 14.581 16.9858 14.7169C17.0716 14.8019 17.157 14.8872 17.2424 14.9725C17.2819 15.0118 17.3214 15.0509 17.3611 15.09C17.7099 15.4333 17.9899 15.7649 18 16.2743C17.9999 16.3141 17.9999 16.3141 17.9998 16.3548C17.9997 16.3964 17.9997 16.3964 17.9997 16.4388C17.993 16.7594 17.9012 17.0201 17.7058 17.2765C17.6862 17.3055 17.6667 17.3345 17.6465 17.3643C17.3879 17.644 17.0148 17.8196 16.6376 17.8439C16.067 17.8632 15.6946 17.6181 15.2897 17.2417C15.1181 17.0804 14.9515 16.9142 14.7853 16.7473C14.7482 16.7102 14.7111 16.6732 14.674 16.6361C14.5748 16.5369 14.4757 16.4375 14.3766 16.3382C14.2725 16.2339 14.1683 16.1296 14.0642 16.0254C13.8675 15.8286 13.671 15.6317 13.4744 15.4348C13.2504 15.2104 13.0263 14.986 12.8022 14.7617C12.3418 14.3008 11.8815 13.8398 11.4213 13.3788C11.3432 13.4231 11.2652 13.4674 11.1872 13.5118C11.1653 13.5242 11.1434 13.5366 11.1209 13.5494C10.9927 13.6224 10.8673 13.6984 10.7432 13.7782C10.1785 14.1073 9.52601 14.3137 8.89342 14.4673C8.86946 14.4731 8.8455 14.479 8.82081 14.485C7.07993 14.8914 5.1022 14.5766 3.57413 13.651C3.40089 13.542 3.23207 13.4272 3.06532 13.3085C3.04322 13.2928 3.02111 13.2771 2.99833 13.2609C2.7151 13.057 2.45655 12.8273 2.20486 12.5862C2.15664 12.54 2.10802 12.4942 2.05937 12.4485C1.81849 12.2163 1.61415 11.9613 1.4152 11.6932C1.39408 11.6648 1.39408 11.6648 1.37253 11.6357C1.14862 11.3306 0.958974 11.0096 0.783238 10.6749C0.771154 10.6519 0.75907 10.629 0.74662 10.6053C0.300969 9.74372 0.0119742 8.73819 0.00247312 7.76488C0.00212927 7.73569 0.00178595 7.70651 0.00143168 7.67643C-0.00466469 7.02432 0.00244467 6.39716 0.151275 5.7588C0.158799 5.72569 0.166323 5.69259 0.174075 5.65848C0.283157 5.19119 0.440454 4.75368 0.642801 4.31908C0.654116 4.29457 0.66543 4.27005 0.677088 4.24479C0.982793 3.58931 1.3783 2.99927 1.8686 2.46759C1.93665 2.39341 2.00188 2.31753 2.06691 2.24071C2.18993 2.09997 2.32534 1.98082 2.46847 1.86103C2.49916 1.83428 2.52984 1.80753 2.56146 1.77997C4.99434 -0.31085 8.64009 -0.492616 12.0855 1.87392ZM5.20697 2.91448C5.17281 2.92992 5.13864 2.94535 5.10343 2.96126C4.64223 3.18014 4.25164 3.49013 3.87283 3.82747C3.84767 3.84965 3.82251 3.87183 3.79658 3.89469C2.99588 4.64589 2.44491 5.84177 2.39234 6.93527C2.34669 8.4484 2.7816 9.70441 3.81537 10.827C4.74678 11.7696 6.01624 12.2337 7.3231 12.2553C8.61239 12.2521 9.83141 11.7054 10.7542 10.8154C10.841 10.7254 10.921 10.6313 11 10.5344C11.0271 10.5016 11.0543 10.4687 11.0823 10.4349C11.9288 9.38715 12.268 8.08842 12.1504 6.75522C12.1301 6.58338 12.0953 6.41818 12.0532 6.25041C12.0474 6.22653 12.0416 6.20266 12.0355 6.17805C11.7631 5.08695 11.1247 4.12112 10.2276 3.44121C10.2024 3.42125 10.1771 3.40128 10.1512 3.38072C9.69756 3.03984 9.1584 2.78379 8.61255 2.63356C8.57752 2.62329 8.54249 2.61301 8.5064 2.60243C7.40415 2.29948 6.23754 2.44494 5.20697 2.91448Z" fill="#F1B037"/>
</svg>
