<svg width="27" height="27" viewBox="0 0 27 27" fill="none" xmlns="http://www.w3.org/2000/svg">
<g id="Group 13">
<path id="Vector" d="M2.26131 0.0261309C2.30062 0.0259914 2.33992 0.0258519 2.38042 0.0257081C2.51286 0.0253033 2.6453 0.0252739 2.77775 0.0252424C2.87337 0.0250312 2.969 0.0247977 3.06462 0.0245437C3.32799 0.0239137 3.59137 0.0236168 3.85474 0.0233766C4.13857 0.0230633 4.4224 0.0224524 4.70624 0.021888C5.39205 0.0205972 6.07786 0.0198278 6.76367 0.0191487C6.95736 0.0189534 7.15106 0.0187443 7.34476 0.0185302C8.54751 0.0172023 9.75027 0.0160419 10.953 0.0153875C11.2317 0.0152333 11.5103 0.0150775 11.7889 0.0149189C11.8582 0.0148796 11.9274 0.0148404 11.9988 0.0147999C13.1205 0.0141342 14.2422 0.0123863 15.3639 0.0101937C16.5154 0.00796116 17.667 0.00672146 18.8185 0.00644656C19.4651 0.00626696 20.1117 0.00564899 20.7582 0.00391548C21.3089 0.00244142 21.8596 0.0018637 22.4104 0.00245246C22.6912 0.00272518 22.9721 0.00257462 23.253 0.00127036C23.5105 8.49916e-05 23.7679 0.000127229 24.0253 0.00112323C24.1182 0.0012703 24.211 0.000977437 24.3038 0.000185951C25.1341 -0.00645555 25.7589 0.163331 26.3768 0.748002C26.7953 1.19126 26.9814 1.72327 26.9792 2.31978C26.9793 2.36508 26.9793 2.41038 26.9793 2.45706C26.9794 2.60911 26.9791 2.76116 26.9789 2.91321C26.9788 3.0221 26.9789 3.131 26.9789 3.23989C26.9789 3.53579 26.9786 3.83169 26.9782 4.1276C26.9779 4.43673 26.9779 4.74586 26.9778 5.05499C26.9776 5.64051 26.9772 6.22602 26.9767 6.81153C26.9761 7.47806 26.9758 8.14459 26.9755 8.81112C26.975 10.1823 26.9741 11.5536 26.9729 12.9248C26.6931 12.871 26.416 12.8168 26.1427 12.7355C26.0889 12.7196 26.0351 12.7037 25.9796 12.6874C25.9227 12.6704 25.8659 12.6533 25.8073 12.6358C25.7464 12.6178 25.6854 12.5998 25.6227 12.5812C25.4923 12.5427 25.362 12.504 25.2317 12.4653C24.8894 12.3635 24.5467 12.2629 24.2041 12.1622C24.1697 12.1521 24.1354 12.1421 24.1 12.1317C23.4841 11.9506 22.8676 11.7715 22.2497 11.5974C22.1547 11.5705 22.0597 11.5436 21.9648 11.5164C21.0145 11.2449 20.3461 11.2276 19.3889 11.5038C19.3341 11.5193 19.2794 11.5348 19.2229 11.5507C19.044 11.6015 18.8653 11.6528 18.6866 11.7041C18.5612 11.7399 18.4358 11.7757 18.3105 11.8115C18.0486 11.8863 17.7869 11.9614 17.5251 12.0366C17.1906 12.1328 16.8558 12.2281 16.5209 12.3232C16.2623 12.3968 16.0038 12.4709 15.7454 12.5452C15.622 12.5806 15.4986 12.6157 15.3751 12.6507C15.2024 12.6997 15.0298 12.7495 14.8574 12.7995C14.8069 12.8136 14.7565 12.8278 14.7045 12.8423C14.0136 13.0448 13.4466 13.4151 13.093 14.0557C12.8358 14.5867 12.8124 15.1169 12.802 15.699C12.8004 15.7768 12.8004 15.7768 12.7987 15.8562C12.7953 16.0202 12.7922 16.1842 12.7891 16.3483C12.7868 16.4602 12.7845 16.5721 12.7822 16.684C12.7766 16.9569 12.7712 17.2297 12.766 17.5026C11.3577 17.5087 9.9494 17.5134 8.54108 17.5162C7.88713 17.5176 7.23319 17.5194 6.57924 17.5224C6.00908 17.525 5.43892 17.5267 4.86875 17.5273C4.56702 17.5277 4.2653 17.5285 3.96357 17.5304C3.67917 17.5322 3.3948 17.5327 3.11039 17.5323C3.0064 17.5324 2.9024 17.5329 2.79842 17.5339C1.92109 17.5421 1.28755 17.4115 0.628542 16.7879C0.288101 16.4273 0.0267514 15.9224 0.0252692 15.4216C0.0250022 15.3736 0.0247352 15.3256 0.0244601 15.2761C0.0244208 15.1973 0.0244207 15.1973 0.0243806 15.1169C0.02415 15.0609 0.0239195 15.0049 0.0236819 14.9472C0.0229773 14.7589 0.0226522 14.5707 0.02233 14.3824C0.0219143 14.2476 0.0214792 14.1129 0.0210261 13.9782C0.0197653 13.5733 0.0189662 13.1684 0.0182869 12.7636C0.0180915 12.6491 0.0178824 12.5347 0.0176685 12.4203C0.0163403 11.7091 0.0151804 10.9979 0.0145258 10.2867C0.0143716 10.122 0.0142157 9.95732 0.0140571 9.79263C0.0140178 9.7517 0.0139787 9.71077 0.0139382 9.6686C0.0132731 9.00626 0.0115257 8.34391 0.00933189 7.68157C0.00709603 7.00093 0.00585932 6.3203 0.00558481 5.63965C0.00540558 5.25775 0.00479193 4.87586 0.00305371 4.49397C0.00141987 4.13442 0.00113965 3.77489 0.00175846 3.41534C0.00177005 3.28369 0.00133461 3.15203 0.000408603 3.02038C-0.00602263 2.05304 0.0557256 1.36009 0.747138 0.629405C1.16822 0.231889 1.69059 0.0251472 2.26131 0.0261309ZM3.71656 4.25698C3.29441 4.82885 3.23831 5.44882 3.29479 6.13705C3.42645 6.77504 3.83109 7.28202 4.34715 7.66297C4.94206 7.99392 5.58926 8.08069 6.25784 7.94271C6.86258 7.73569 7.38281 7.33376 7.69579 6.77114C7.96601 6.18955 8.05135 5.48927 7.83967 4.87092C7.54913 4.21015 7.09249 3.72815 6.42269 3.44694C5.40561 3.083 4.3977 3.46985 3.71656 4.25698ZM12.9239 5.18992C12.7807 5.42501 12.7844 5.65891 12.8186 5.92657C12.9341 6.16168 13.0547 6.29009 13.2922 6.40014C13.5108 6.45641 13.7188 6.4595 13.944 6.45979C13.9827 6.45991 14.0213 6.46003 14.0611 6.46015C14.1903 6.46049 14.3195 6.46044 14.4488 6.4604C14.5415 6.46056 14.6343 6.46074 14.727 6.46094C14.9788 6.4614 15.2306 6.46152 15.4824 6.46156C15.6397 6.46159 15.7971 6.46171 15.9544 6.46185C16.5034 6.46233 17.0524 6.46255 17.6015 6.46251C18.1131 6.46247 18.6247 6.46303 19.1363 6.46386C19.5757 6.46455 20.0151 6.46483 20.4545 6.4648C20.7169 6.46478 20.9792 6.46493 21.2416 6.46549C21.4884 6.466 21.7352 6.466 21.9819 6.46562C22.0724 6.46557 22.1629 6.46569 22.2533 6.46601C22.377 6.46642 22.5007 6.46617 22.6244 6.46576C22.6936 6.46579 22.7628 6.46582 22.834 6.46585C23.1165 6.44663 23.3268 6.40651 23.5429 6.21926C23.7478 5.97915 23.7906 5.84407 23.7825 5.53584C23.7505 5.3111 23.6667 5.18237 23.5001 5.03207C23.0528 4.82489 22.5914 4.85229 22.1092 4.85462C22.0164 4.85449 21.9236 4.8543 21.8308 4.85404C21.5799 4.85355 21.329 4.85404 21.0781 4.85474C20.8151 4.85534 20.5521 4.85512 20.289 4.85502C19.8475 4.85497 19.406 4.85555 18.9645 4.85652C18.4544 4.85764 17.9444 4.85782 17.4343 4.85749C16.943 4.85719 16.4516 4.85749 15.9603 4.85808C15.7515 4.85832 15.5426 4.85837 15.3338 4.85826C15.0879 4.85816 14.842 4.85859 14.5961 4.85942C14.5059 4.85964 14.4158 4.85969 14.3257 4.85954C14.2024 4.85937 14.0792 4.85985 13.956 4.86049C13.8871 4.8606 13.8182 4.86071 13.7472 4.86082C13.415 4.884 13.165 4.95567 12.9239 5.18992ZM3.45265 11.5041C3.30949 11.7392 3.31316 11.9731 3.34741 12.2408C3.46283 12.4759 3.58351 12.6043 3.82097 12.7143C4.12918 12.7921 4.44225 12.7767 4.7581 12.7767C4.86606 12.7768 4.974 12.7778 5.08195 12.7788C5.1508 12.7789 5.21965 12.779 5.29058 12.7791C5.35311 12.7793 5.41563 12.7795 5.48006 12.7797C5.75816 12.7602 5.96635 12.7177 6.17892 12.5334C6.38389 12.2933 6.42667 12.1582 6.41857 11.85C6.38656 11.6256 6.30301 11.496 6.13616 11.3462C5.77575 11.1502 5.37191 11.1657 4.97269 11.1707C4.86658 11.1719 4.76054 11.1718 4.65443 11.1714C3.99845 11.1722 3.99845 11.1722 3.45265 11.5041ZM8.18827 11.5041C8.0451 11.7392 8.04878 11.9731 8.08303 12.2408C8.19844 12.4759 8.31913 12.6043 8.55659 12.7143C8.8648 12.7921 9.17787 12.7767 9.49372 12.7767C9.60168 12.7768 9.70962 12.7778 9.81757 12.7788C9.88642 12.7789 9.95526 12.779 10.0262 12.7791C10.0887 12.7793 10.1513 12.7795 10.2157 12.7797C10.4938 12.7602 10.702 12.7177 10.9145 12.5334C11.1195 12.2933 11.1623 12.1582 11.1542 11.85C11.1222 11.6256 11.0386 11.496 10.8718 11.3462C10.5114 11.1502 10.1075 11.1657 9.7083 11.1707C9.6022 11.1719 9.49616 11.1718 9.39005 11.1714C8.73407 11.1722 8.73406 11.1722 8.18827 11.5041Z" fill="#F1B037"/>
<path id="Vector_2" d="M21.5482 12.9083C21.6284 12.9309 21.6284 12.9309 21.7102 12.954C21.8849 13.0034 22.0592 13.054 22.2335 13.1047C22.3557 13.1396 22.4779 13.1745 22.6001 13.2093C22.8553 13.2823 23.1103 13.3557 23.3651 13.4296C23.6915 13.5243 24.0182 13.6176 24.345 13.7106C24.597 13.7824 24.8488 13.8547 25.1006 13.9273C25.221 13.9619 25.3415 13.9964 25.462 14.0307C25.6302 14.0788 25.7983 14.1276 25.9663 14.1765C26.0158 14.1905 26.0653 14.2045 26.1164 14.219C26.4327 14.3123 26.6933 14.4117 26.9123 14.6711C26.9976 14.8793 26.9953 15.0662 26.9941 15.2893C26.9944 15.3362 26.9948 15.3831 26.9952 15.4315C26.9961 15.5868 26.9959 15.7421 26.9956 15.8974C26.9959 16.0063 26.9961 16.1152 26.9965 16.2241C26.9969 16.453 26.9968 16.6819 26.9963 16.9108C26.9957 17.2009 26.9967 17.4909 26.9983 17.7809C26.9993 18.0064 26.9992 18.2319 26.9989 18.4574C26.9989 18.5641 26.9992 18.6708 26.9999 18.7775C27.0049 19.718 26.9097 20.6558 26.5913 21.5474C26.5757 21.5925 26.5601 21.6376 26.544 21.684C26.3896 22.1163 26.196 22.5214 25.9731 22.9221C25.9464 22.971 25.9464 22.971 25.9193 23.021C24.9161 24.8522 23.1328 26.3313 21.1252 26.9383C20.1358 27.1702 19.0597 26.5243 18.2382 26.0266C17.7469 25.7041 17.2943 25.3276 16.8702 24.9216C16.8284 24.8831 16.7866 24.8447 16.7435 24.805C15.3686 23.4976 14.3953 21.4736 14.3338 19.5656C14.3276 19.2665 14.327 18.9675 14.3268 18.6684C14.3265 18.5581 14.3261 18.4478 14.3258 18.3374C14.3251 18.1075 14.3249 17.8776 14.325 17.6477C14.325 17.3533 14.3236 17.059 14.3218 16.7646C14.3206 16.5374 14.3204 16.3101 14.3204 16.0828C14.3203 15.9742 14.3198 15.8657 14.319 15.7571C14.318 15.6056 14.3183 15.4542 14.3189 15.3027C14.3183 15.2582 14.3177 15.2137 14.3171 15.1678C14.3201 14.8872 14.3636 14.7222 14.555 14.5032C14.7838 14.322 15.0686 14.2614 15.3451 14.1825C15.398 14.1671 15.4509 14.1517 15.5054 14.1358C15.6802 14.085 15.8551 14.0348 16.0301 13.9846C16.1521 13.9494 16.2741 13.9143 16.3961 13.8791C16.6519 13.8055 16.9078 13.7321 17.1637 13.659C17.4906 13.5655 17.8172 13.4709 18.1436 13.3761C18.3956 13.303 18.6478 13.2308 18.9 13.1587C19.0204 13.1242 19.1408 13.0894 19.261 13.0543C19.4299 13.0051 19.599 12.957 19.7683 12.9092C19.8172 12.8947 19.8662 12.8802 19.9167 12.8652C20.485 12.7073 20.9871 12.7427 21.5482 12.9083ZM22.18 18.0212C22.143 18.0582 22.143 18.0582 22.1052 18.096C22.0247 18.1766 21.9445 18.2576 21.8643 18.3385C21.8082 18.3949 21.752 18.4512 21.6958 18.5075C21.5487 18.655 21.4019 18.8029 21.2552 18.9508C21.1051 19.1019 20.9547 19.2528 20.8044 19.4037C20.51 19.6992 20.2159 19.9951 19.922 20.2912C19.7436 20.2069 19.6291 20.1146 19.4912 19.9722C19.4501 19.9303 19.409 19.8883 19.3666 19.8452C19.2809 19.7566 19.1951 19.6681 19.1093 19.5796C19.0682 19.5377 19.0271 19.4958 18.9847 19.4526C18.9475 19.4141 18.9103 19.3757 18.8719 19.336C18.6458 19.1315 18.4545 19.1104 18.1579 19.1169C17.9109 19.1485 17.7729 19.2751 17.6134 19.4559C17.5262 19.6787 17.5092 19.8979 17.5542 20.1333C17.713 20.4033 17.9133 20.613 18.1346 20.833C18.17 20.8685 18.2054 20.904 18.2419 20.9406C18.3165 21.0152 18.3911 21.0896 18.4659 21.164C18.5802 21.2778 18.694 21.3921 18.8078 21.5065C18.8804 21.5791 18.9531 21.6517 19.0259 21.7242C19.0767 21.7754 19.0767 21.7754 19.1287 21.8277C19.1606 21.8593 19.1926 21.8909 19.2255 21.9235C19.2534 21.9513 19.2813 21.9791 19.31 22.0077C19.4844 22.155 19.6366 22.2016 19.8628 22.2052C19.9061 22.2067 19.9494 22.2081 19.9939 22.2097C20.3184 22.1529 20.5531 21.8853 20.777 21.6598C20.8238 21.6133 20.8238 21.6133 20.8715 21.5658C20.9737 21.464 21.0756 21.3619 21.1774 21.2597C21.2487 21.1885 21.3199 21.1173 21.3912 21.0462C21.5402 20.8974 21.6889 20.7484 21.8375 20.5993C22.028 20.4082 22.219 20.2176 22.4101 20.0271C22.5572 19.8804 22.704 19.7335 22.8508 19.5865C22.9211 19.5161 22.9915 19.4457 23.062 19.3755C23.1603 19.2774 23.2584 19.179 23.3563 19.0804C23.4 19.0371 23.4 19.0371 23.4446 18.9928C23.666 18.769 23.7779 18.6146 23.7828 18.2983C23.7773 18.0463 23.7251 17.904 23.5526 17.7129C23.3516 17.5355 23.1569 17.535 22.9001 17.5289C22.603 17.5857 22.3869 17.8132 22.18 18.0212Z" fill="#F1B037"/>
<path id="Vector_3" d="M5.9259 4.87434C6.16877 4.98938 6.27994 5.11091 6.39946 5.3479C6.44307 5.63983 6.43756 5.89889 6.31067 6.16677C6.14745 6.33881 6.01095 6.44018 5.77318 6.4757C5.44967 6.47611 5.22539 6.47638 4.97877 6.24241C4.77412 5.95609 4.77933 5.68895 4.82092 5.3479C5.05037 4.8635 5.43398 4.81435 5.9259 4.87434Z" fill="#F1B037"/>
</g>
</svg>
