<svg width="28" height="27" viewBox="0 0 28 27" fill="none" xmlns="http://www.w3.org/2000/svg">
<g id="Group 60">
<path id="Vector" d="M14.0923 4.14204C14.2516 4.23285 14.3667 4.3269 14.4982 4.45599C14.7226 4.66784 14.9542 4.86477 15.1964 5.05429C15.2307 5.08113 15.265 5.10797 15.3003 5.13562C15.3714 5.19123 15.4424 5.24684 15.5135 5.30243C15.6952 5.44551 15.8749 5.59118 16.0546 5.73691C16.109 5.78099 16.109 5.78099 16.1644 5.82596C16.238 5.8856 16.3116 5.94525 16.3851 6.00491C16.5673 6.15267 16.7498 6.30014 16.9322 6.44764C17.005 6.50653 17.0778 6.56543 17.1506 6.62432C17.1867 6.65347 17.2227 6.68262 17.2599 6.71266C19.1165 8.21443 20.9732 9.71619 22.8299 11.218C22.866 11.2471 22.902 11.2763 22.9392 11.3063C23.0118 11.3651 23.0845 11.4239 23.1571 11.4827C23.3413 11.6317 23.5257 11.7806 23.7102 11.9292C24.1135 12.2541 24.5134 12.5822 24.9077 12.9187C25.0501 13.0403 25.0501 13.0403 25.2327 13.1614C25.2562 13.3497 25.2562 13.3497 25.2564 13.5961C25.2567 13.6413 25.257 13.6865 25.2573 13.7331C25.2581 13.8854 25.2575 14.0377 25.2569 14.19C25.2571 14.2989 25.2575 14.4078 25.2579 14.5167C25.2587 14.8133 25.2584 15.1098 25.2578 15.4064C25.2573 15.717 25.2578 16.0275 25.2581 16.3381C25.2584 16.8604 25.258 17.3826 25.2571 17.9049C25.2561 18.5074 25.2564 19.1099 25.2574 19.7125C25.2583 20.2301 25.2584 20.7478 25.2579 21.2655C25.2576 21.5745 25.2576 21.8835 25.2582 22.1925C25.2587 22.4837 25.2583 22.7748 25.2573 23.066C25.257 23.1724 25.2571 23.2788 25.2575 23.3852C25.2612 24.4192 25.1212 25.3318 24.4213 26.1232C23.7242 26.7984 22.8795 26.9947 21.9527 26.9912C21.8819 26.9915 21.8111 26.9917 21.7382 26.992C21.5019 26.9926 21.2656 26.9924 21.0293 26.9921C20.8595 26.9923 20.6897 26.9927 20.5199 26.9931C20.1071 26.9939 19.6944 26.994 19.2816 26.9939C18.9459 26.9938 18.6101 26.9939 18.2744 26.9942C18.2266 26.9942 18.1787 26.9942 18.1294 26.9943C18.0322 26.9944 17.9349 26.9944 17.8377 26.9945C16.9266 26.9952 16.0154 26.9951 15.1043 26.9947C14.2719 26.9943 13.4395 26.9951 12.607 26.9963C11.7511 26.9975 10.8952 26.9981 10.0393 26.9978C9.55927 26.9977 9.07922 26.9979 8.59917 26.9988C8.19044 26.9995 7.78173 26.9996 7.37301 26.9988C7.16473 26.9985 6.95647 26.9985 6.7482 26.9992C6.52178 26.9998 6.29539 26.9993 6.06898 26.9985C6.00403 26.999 5.93909 26.9995 5.87218 26.9999C5.00995 26.9935 4.23604 26.7426 3.59217 26.1393C2.84126 25.3177 2.74673 24.3295 2.73819 23.2587C2.7369 23.1495 2.73556 23.0404 2.73419 22.9312C2.72997 22.5745 2.72711 22.2178 2.72453 21.8611C2.72407 21.8002 2.72362 21.7394 2.72316 21.6767C2.71897 21.1023 2.71534 20.5279 2.71295 19.9535C2.70986 19.2207 2.70406 18.488 2.69461 17.7552C2.68817 17.2387 2.68486 16.7223 2.68383 16.2059C2.68313 15.8978 2.68107 15.59 2.67564 15.282C2.6706 14.9922 2.66944 14.7027 2.67119 14.413C2.67116 14.307 2.66977 14.2011 2.66685 14.0952C2.64654 13.3173 2.64654 13.3173 2.84554 13.056C3.06541 12.8371 3.31478 12.6792 3.57656 12.519C3.65692 12.4572 3.73638 12.3941 3.81401 12.3287C3.87725 12.2775 3.94048 12.2264 4.00563 12.1736C4.35079 11.8942 4.69384 11.6121 5.03644 11.3293C5.47776 10.9653 5.92292 10.6065 6.36811 10.2475C6.78102 9.91454 7.19274 9.58016 7.60198 9.24237C8.01111 8.90467 8.42275 8.57039 8.83557 8.23748C9.05395 8.06129 9.27205 7.88473 9.49016 7.70818C9.67043 7.5623 9.85084 7.4166 10.0316 7.2713C10.4225 6.95665 10.8101 6.63828 11.1944 6.31513C11.5582 6.00941 11.9264 5.71118 12.2998 5.41794C12.4811 5.27539 12.6608 5.13086 12.8401 4.98561C12.9149 4.92504 12.9898 4.86463 13.0648 4.80438C13.2274 4.67357 13.3871 4.54158 13.5438 4.40329C13.5923 4.36105 13.6408 4.31882 13.6908 4.2753C13.7517 4.22002 13.7517 4.22002 13.8139 4.16362C13.9365 4.10264 13.9365 4.10264 14.0923 4.14204ZM11.9394 9.43511C11.8639 9.45838 11.7884 9.48166 11.7105 9.50563C10.0879 10.0525 8.67315 11.2214 7.86868 12.7807C6.9932 14.5664 6.74976 16.6177 7.33284 18.5381C7.71846 19.6399 8.28921 20.5327 9.0686 21.385C9.10223 21.4238 9.13586 21.4625 9.1705 21.5025C10.3465 22.8043 12.1355 23.4145 13.8183 23.5169C15.7411 23.5623 17.5193 22.7775 18.9079 21.4325C20.2243 20.1139 20.9582 18.295 21.0122 16.4099C20.95 14.2172 20.1437 12.3496 18.6017 10.8405C16.8536 9.24343 14.1569 8.71373 11.9394 9.43511Z" fill="#F1B037"/>
<path id="Vector_2" d="M16.139 0.721965C16.3661 0.901045 16.5865 1.08827 16.807 1.27584C16.9321 1.381 17.0574 1.48592 17.1827 1.59082C17.2677 1.66196 17.3527 1.73318 17.4375 1.80448C17.7597 2.07457 18.087 2.33656 18.4172 2.59616C18.9938 3.04959 19.5593 3.51669 20.1213 3.98907C20.3775 4.20378 20.636 4.41446 20.8987 4.62069C21.2308 4.88155 21.5577 5.14835 21.8835 5.41762C22.147 5.63534 22.4115 5.85155 22.6774 6.06624C22.7132 6.09518 22.749 6.12413 22.786 6.15395C22.8941 6.24119 23.0022 6.32839 23.1103 6.41558C23.599 6.80956 24.0859 7.20553 24.5702 7.60524C24.8328 7.82175 25.0963 8.03683 25.361 8.25063C25.3969 8.27962 25.4327 8.30862 25.4697 8.33849C25.6489 8.48315 25.8283 8.62759 26.0077 8.77188C26.1889 8.91762 26.3695 9.06401 26.5498 9.21084C26.6328 9.27833 26.7159 9.34564 26.7992 9.41281C26.9352 9.52277 27.0706 9.63348 27.2059 9.74436C27.2481 9.77822 27.2902 9.81209 27.3337 9.84697C27.6325 10.0936 27.8543 10.3372 27.9783 10.7201C28.0182 11.2129 28.0357 11.6666 27.7286 12.0693C27.3691 12.4661 27.0565 12.645 26.5272 12.6756C25.8852 12.6587 25.462 12.2763 24.9948 11.8597C24.7904 11.6777 24.5794 11.5055 24.3663 11.3345C24.3298 11.3051 24.2932 11.2756 24.2556 11.2453C24.1813 11.1856 24.1069 11.1259 24.0326 11.0662C23.851 10.9204 23.6698 10.7741 23.4887 10.6278C23.4528 10.5988 23.4169 10.5698 23.38 10.5399C23.0724 10.291 22.767 10.0394 22.4618 9.78743C22.0561 9.4529 21.6472 9.12262 21.238 8.79271C20.7494 8.39873 20.2624 8.00276 19.7781 7.60304C19.3725 7.26851 18.9636 6.93823 18.5544 6.60832C18.0658 6.21434 17.5788 5.81837 17.0945 5.41866C16.7248 5.11378 16.3525 4.81248 15.9796 4.5118C15.869 4.42242 15.7586 4.33275 15.6482 4.24299C15.4668 4.09543 15.2849 3.94865 15.1026 3.80229C15.0322 3.74553 14.962 3.68848 14.8921 3.63114C14.7923 3.5494 14.692 3.4686 14.5914 3.38795C14.5341 3.34141 14.4769 3.29486 14.4178 3.24691C14.2274 3.12578 14.0969 3.08466 13.8737 3.07475C13.7447 3.11888 13.7447 3.11888 13.6319 3.21127C13.584 3.24697 13.5361 3.28266 13.4868 3.31944C13.178 3.56822 12.8736 3.82251 12.5707 4.07886C12.339 4.27462 12.1048 4.46671 11.8688 4.65683C11.8332 4.6855 11.7976 4.71418 11.761 4.74372C11.6896 4.80123 11.6181 4.85871 11.5467 4.91616C11.3665 5.06103 11.1866 5.2062 11.0068 5.35149C10.9709 5.38049 10.935 5.40949 10.898 5.43936C10.6301 5.65616 10.3638 5.87491 10.0979 6.09435C9.61739 6.49099 9.13311 6.88261 8.64819 7.27356C8.23528 7.60656 7.82356 7.94095 7.41432 8.27873C6.89888 8.70418 6.37939 9.12421 5.85872 9.54284C5.46772 9.85762 5.08005 10.176 4.69561 10.4993C4.33335 10.8038 3.96664 11.1006 3.59418 11.3917C3.44436 11.5098 3.29793 11.6314 3.15243 11.7551C2.02366 12.7133 2.02366 12.7133 1.25601 12.6739C0.792724 12.6046 0.531955 12.3703 0.233813 12.0113C-0.0247265 11.625 -0.0182368 11.2388 0.0187928 10.7844C0.201049 10.1485 0.670956 9.79922 1.16557 9.41811C1.39979 9.23753 1.6281 9.04991 1.85597 8.86097C2.26623 8.52169 2.6792 8.18614 3.09347 7.85206C3.31185 7.67588 3.52994 7.49931 3.74805 7.32277C3.92833 7.17688 4.10873 7.03118 4.28946 6.88588C4.6804 6.57123 5.06796 6.25286 5.45232 5.92971C5.81668 5.62351 6.18559 5.32492 6.55936 5.03101C7.09227 4.61193 7.6165 4.18193 8.13593 3.74532C8.50021 3.4392 8.86899 3.14064 9.24273 2.84687C9.7237 2.46867 10.1978 2.08115 10.6697 1.69106C10.8261 1.56191 10.9828 1.43324 11.1396 1.30461C11.2134 1.24377 11.2871 1.18269 11.3606 1.12134C12.7875 -0.0701301 14.5633 -0.477513 16.139 0.721965Z" fill="#F1B037"/>
<path id="Vector_3" d="M17.9557 11.5395C19.1743 12.619 19.9057 14.1536 20.052 15.7959C20.1791 17.6197 19.5128 19.3316 18.3694 20.6962C17.4121 21.7482 15.9285 22.4097 14.5379 22.4856C12.7656 22.541 11.1616 22.1128 9.81687 20.8714C9.77729 20.8359 9.73771 20.8005 9.69693 20.764C8.52817 19.6491 8.05466 17.9924 7.92654 16.408C7.88161 14.745 8.51896 13.1789 9.60673 11.9694C11.8251 9.56176 15.5148 9.46998 17.9557 11.5395ZM13.0622 12.2623C12.9963 12.3895 12.9345 12.519 12.8762 12.6501C12.8271 12.7598 12.8271 12.7598 12.7771 12.8718C12.7437 12.9476 12.7104 13.0234 12.676 13.1015C12.6419 13.1776 12.6079 13.2537 12.5728 13.332C12.38 13.7493 12.38 13.7493 12.2508 14.1897C12.2142 14.1945 12.1775 14.1994 12.1397 14.2044C10.7799 14.3066 10.7799 14.3066 9.56723 14.8322C9.36105 15.1364 9.32438 15.4354 9.38 15.7959C9.5873 16.2227 9.96367 16.5409 10.3083 16.8519C10.3695 16.9095 10.3695 16.9095 10.4319 16.9681C10.5643 17.0869 10.5643 17.0869 10.7289 17.1714C10.9307 17.2997 11.0197 17.3743 11.1275 17.5948C11.1469 18.0363 11.0546 18.4753 10.9719 18.9066C10.8134 19.7278 10.8134 19.7278 10.9831 20.522C11.2514 20.8132 11.4836 20.9219 11.8764 20.9356C12.3897 20.773 12.8326 20.4809 13.2923 20.2008C13.3536 20.1642 13.4149 20.1276 13.4781 20.0899C13.5331 20.0564 13.5881 20.023 13.6447 19.9886C13.8357 19.8957 13.9738 19.8522 14.1855 19.8434C14.3394 19.9045 14.4676 19.9659 14.6097 20.048C14.691 20.0921 14.7722 20.1362 14.8535 20.1803C14.9797 20.2505 15.1056 20.321 15.2314 20.3919C15.9148 20.7893 15.9148 20.7893 16.6819 20.8071C16.9647 20.6723 17.1094 20.5019 17.2646 20.2337C17.3706 19.8928 17.2934 19.5352 17.2219 19.1942C17.2046 19.109 17.1872 19.0238 17.1699 18.9386C17.1423 18.8062 17.1146 18.6738 17.0868 18.5414C17.0599 18.4125 17.0336 18.2833 17.0074 18.1542C16.9914 18.0777 16.9753 18.0011 16.9588 17.9223C16.9188 17.6306 16.9188 17.6306 16.994 17.4663C17.1008 17.3415 17.207 17.2276 17.3233 17.1129C17.3726 17.0631 17.3726 17.0631 17.4229 17.0122C17.5278 16.9061 17.6333 16.8007 17.739 16.6953C17.8443 16.59 17.9496 16.4844 18.0544 16.3785C18.1196 16.3127 18.1851 16.2471 18.2509 16.182C18.5119 15.9189 18.6343 15.7315 18.64 15.3542C18.632 15.0441 18.5804 14.8701 18.367 14.6394C17.9071 14.3365 17.4116 14.3014 16.8808 14.2419C16.7481 14.2262 16.6154 14.2102 16.4827 14.1941C16.3632 14.1797 16.2435 14.166 16.1239 14.1523C15.933 14.1255 15.933 14.1255 15.7458 14.0612C15.6493 13.9018 15.6493 13.9018 15.5473 13.6913C15.5289 13.654 15.5106 13.6166 15.4916 13.5781C15.4327 13.4584 15.3747 13.3382 15.3167 13.218C14.9618 12.3959 14.9618 12.3959 14.3845 11.7524C13.7914 11.5489 13.4286 11.7506 13.0622 12.2623Z" fill="#F1B037"/>
<path id="Vector_4" d="M13.8736 12.7114C14.0609 12.7757 14.0609 12.7757 14.1335 12.8907C14.1562 12.9401 14.179 12.9895 14.2025 13.0404C14.2281 13.095 14.2538 13.1495 14.2802 13.2057C14.3069 13.2639 14.3337 13.3221 14.3612 13.382C14.4169 13.4998 14.4729 13.6175 14.5289 13.7351C14.5558 13.7916 14.5827 13.848 14.6104 13.9062C14.8931 14.5193 14.8931 14.5193 15.3715 14.9601C15.8684 15.1112 16.3912 15.1499 16.904 15.2078C16.9683 15.2155 17.0325 15.2232 17.0987 15.2311C17.1566 15.2377 17.2144 15.2443 17.274 15.2511C17.43 15.2811 17.5434 15.3292 17.6806 15.4098C17.6425 15.4483 17.6045 15.4868 17.5653 15.5265C17.4225 15.6712 17.2801 15.8163 17.1378 15.9615C17.0765 16.024 17.0151 16.0864 16.9535 16.1486C16.2745 16.7913 16.2745 16.7913 15.9956 17.6584C16.0202 17.8995 16.0202 17.8995 16.0714 18.1476C16.0798 18.1922 16.0882 18.2369 16.0968 18.283C16.1235 18.4243 16.1512 18.5654 16.1789 18.7064C16.2062 18.8487 16.2333 18.991 16.2603 19.1334C16.2847 19.2617 16.3097 19.3899 16.3346 19.5181C16.37 19.7143 16.37 19.7143 16.37 19.8428C16.1051 19.7588 15.8699 19.654 15.626 19.5191C15.5222 19.4632 15.5222 19.4632 15.4163 19.4061C15.2726 19.3281 15.1292 19.2493 14.9863 19.1697C14.5734 18.9493 14.217 18.7617 13.7488 18.8791C13.479 18.9919 13.2315 19.1337 12.9804 19.2847C12.9144 19.3229 12.8484 19.3611 12.7804 19.4005C12.5449 19.5374 12.311 19.6757 12.0817 19.8233C11.9389 19.9071 11.9389 19.9071 11.8141 19.9071C11.835 19.5418 11.8678 19.1804 11.9245 18.8191C11.9333 18.7635 11.942 18.7079 11.9509 18.6505C11.9686 18.5402 11.9868 18.43 12.0058 18.3199C12.0721 17.9045 12.1227 17.482 11.9053 17.1076C11.8623 17.0628 11.8194 17.0179 11.7751 16.9718C11.7252 16.919 11.6753 16.8663 11.624 16.8119C11.3614 16.5507 11.0946 16.2937 10.8244 16.0408C10.7662 15.9861 10.7662 15.9861 10.7068 15.9303C10.6722 15.898 10.6375 15.8658 10.6018 15.8326C10.4938 15.721 10.4054 15.6019 10.3163 15.474C10.4093 15.4585 10.4093 15.4585 10.5041 15.4427C10.7359 15.4039 10.9674 15.3638 11.1989 15.3235C11.2988 15.3062 11.3987 15.2893 11.4987 15.2726C11.6431 15.2486 11.7872 15.2234 11.9314 15.198C11.9755 15.1909 12.0197 15.1838 12.0652 15.1764C12.3805 15.1193 12.6083 15.0159 12.8751 14.8316C12.9754 14.6736 13.0483 14.5397 13.1208 14.3698C13.141 14.3255 13.1612 14.2812 13.182 14.2355C13.2248 14.1413 13.267 14.0468 13.3087 13.9521C13.3767 13.7984 13.4465 13.6457 13.517 13.4932C13.637 13.2331 13.7556 12.9725 13.8736 12.7114Z" fill="#F1B037"/>
</g>
</svg>
