<svg width="26" height="25" viewBox="0 0 26 25" fill="none" xmlns="http://www.w3.org/2000/svg">
<g id="Group 59">
<path id="Vector" d="M13.2052 4.34497C13.3529 4.42558 13.3529 4.42558 13.4904 4.53922C13.5287 4.57014 13.5287 4.57014 13.5677 4.60168C13.6223 4.64578 13.6766 4.69027 13.7305 4.73511C13.8126 4.80281 13.896 4.86849 13.9801 4.93369C14.4241 5.27839 14.8562 5.63749 15.2883 5.99707C15.4172 6.10405 15.5468 6.21011 15.6765 6.31614C15.9054 6.50403 16.131 6.69553 16.3562 6.88796C16.5323 7.03825 16.7103 7.18584 16.8899 7.33198C17.1127 7.51409 17.3258 7.70461 17.538 7.89901C17.6697 8.0166 17.8047 8.12837 17.9418 8.23954C18.1869 8.43894 18.4204 8.64855 18.6527 8.8629C18.8783 9.07083 19.1092 9.27228 19.3429 9.47093C19.702 9.77682 20.0512 10.0907 20.3939 10.415C20.5784 10.5896 20.7651 10.7602 20.9572 10.9264C21.132 11.081 21.302 11.2409 21.4727 11.4C21.6743 11.5877 21.8784 11.7724 22.0837 11.9562C22.2015 12.0647 22.317 12.1749 22.4318 12.2866C22.4687 12.3222 22.5056 12.3579 22.5436 12.3946C22.6163 12.465 22.6887 12.5357 22.7606 12.6069C22.9795 12.8195 22.9795 12.8195 23.2401 12.9747C23.4108 13.055 23.5216 13.1197 23.6478 13.2614C23.7245 13.5889 23.7046 13.9081 23.689 14.2422C23.6864 14.342 23.6839 14.4418 23.6817 14.5416C23.6751 14.808 23.6649 15.0741 23.6541 15.3403C23.6459 15.5541 23.6401 15.768 23.6345 15.982C23.6033 17.1463 23.5395 18.307 23.4451 19.4679C23.4408 19.5201 23.4366 19.5724 23.4322 19.6263C23.3188 21.0049 23.1365 22.191 22.1777 23.2478C22.1436 23.2869 22.1094 23.326 22.0742 23.3662C21.1325 24.3837 19.8895 24.6729 18.5628 24.7769C18.4066 24.7892 18.2505 24.8024 18.0944 24.8158C17.9935 24.8242 17.8926 24.8325 17.7917 24.8408C17.7458 24.8446 17.7 24.8485 17.6528 24.8524C17.3525 24.8757 17.0548 24.8825 16.7537 24.8782C16.7552 24.8416 16.7567 24.805 16.7583 24.7673C16.8033 23.6284 16.8101 22.4896 16.8106 21.35C16.8107 21.2343 16.8109 21.1185 16.8111 21.0028C16.8124 20.1571 16.8053 19.312 16.7818 18.4666C16.7803 18.4117 16.7803 18.4117 16.7788 18.3558C16.7765 16.9666 16.7765 16.9666 16.0911 15.8104C14.9839 14.8972 12.9774 15.1512 11.6401 15.2389C11.5814 15.2425 11.5227 15.2461 11.4622 15.2498C10.8156 15.2971 10.2265 15.4588 9.76764 15.9459C9.19293 16.6546 9.24625 17.5464 9.2231 18.4108C9.22204 18.4491 9.22098 18.4873 9.21988 18.5267C9.19654 19.3809 9.19251 20.2349 9.19401 21.0894C9.19419 21.2087 9.19427 21.328 9.19432 21.4473C9.19496 22.5915 9.20292 23.7349 9.25122 24.8782C8.61623 24.8597 7.98365 24.8243 7.35102 24.7668C7.28189 24.7605 7.21274 24.7544 7.14358 24.7484C5.87213 24.6374 4.83787 24.2621 3.92853 23.3497C3.88951 23.3111 3.8505 23.2725 3.81031 23.2327C3.11985 22.5091 2.74711 21.5696 2.66122 20.5808C2.65509 20.514 2.65509 20.514 2.64883 20.4459C2.63571 20.3014 2.62308 20.1569 2.61053 20.0124C2.60613 19.9627 2.60172 19.9129 2.59719 19.8616C2.47935 18.5266 2.39007 17.1903 2.36501 15.8499C2.36086 15.6395 2.35451 15.4294 2.34612 15.2191C2.33598 14.9643 2.32873 14.7096 2.32312 14.4546C2.32042 14.3541 2.31676 14.2536 2.31208 14.1531C2.27591 13.3544 2.27591 13.3544 2.47554 13.1256C2.6234 13.0323 2.6234 13.0323 2.77083 12.9685C2.93512 12.8957 3.02946 12.8057 3.1523 12.6755C3.29 12.5299 3.42818 12.3921 3.58002 12.2615C3.71018 12.1493 3.83371 12.0342 3.95387 11.9112C4.10209 11.7599 4.25731 11.6205 4.41723 11.4819C4.56718 11.3494 4.71359 11.2133 4.86 11.0769C5.09902 10.8543 5.33943 10.6334 5.58216 10.4149C5.66227 10.3427 5.74214 10.2703 5.82176 10.1976C6.09346 9.9498 6.37031 9.70901 6.64968 9.4701C6.84812 9.29967 7.04183 9.12507 7.23303 8.94649C7.46467 8.73026 7.70483 8.52756 7.95104 8.32831C8.08391 8.21839 8.2116 8.10449 8.33876 7.98797C8.5517 7.79309 8.77186 7.60986 8.99577 7.42791C9.17369 7.28035 9.34704 7.12809 9.52052 6.97532C9.79378 6.7352 10.0729 6.50562 10.3599 6.28233C10.5608 6.1255 10.7562 5.96343 10.9494 5.79708C11.2572 5.5328 11.5722 5.27946 11.8929 5.03132C11.9961 4.95049 12.0978 4.86791 12.1995 4.78522C12.2707 4.72866 12.3419 4.67213 12.4131 4.61565C12.4457 4.58866 12.4782 4.56167 12.5117 4.53386C12.7515 4.34666 12.9016 4.30006 13.2052 4.34497Z" fill="#F1B037"/>
<path id="Vector_2" d="M15.7031 1.38239C15.7481 1.41792 15.793 1.45345 15.8394 1.49006C15.9167 1.54885 15.994 1.60763 16.0713 1.66641C16.3878 1.9084 16.6966 2.15977 17.0044 2.41278C17.2243 2.59327 17.4464 2.77032 17.6706 2.94535C17.9451 3.16017 18.2105 3.38398 18.4735 3.61282C18.6483 3.76481 18.8248 3.91378 19.0045 4.05991C19.2925 4.29512 19.5721 4.53958 19.852 4.78457C20.0395 4.94865 20.2284 5.11101 20.4175 5.27318C20.6208 5.44765 20.8217 5.62409 21.0195 5.80498C21.1842 5.95548 21.3526 6.09831 21.5264 6.23806C21.834 6.48797 22.1195 6.75981 22.4072 7.03238C22.5631 7.17993 22.7223 7.3227 22.8846 7.46308C23.0496 7.60838 23.2102 7.75852 23.3715 7.90788C23.5088 8.03481 23.6471 8.16016 23.7885 8.28248C24.0208 8.48483 24.2439 8.69697 24.468 8.90822C24.647 9.07682 24.8267 9.24445 25.0083 9.41027C25.1293 9.52091 25.2495 9.63245 25.3695 9.74413C25.4136 9.78505 25.4577 9.82597 25.5032 9.86813C25.8433 10.1946 25.9827 10.4316 26 10.9128C25.9903 11.2819 25.9341 11.5124 25.6802 11.7804C25.3924 12.0478 25.1682 12.1535 24.7707 12.1579C24.7118 12.1594 24.653 12.1608 24.5923 12.1623C24.1891 12.1114 23.9248 11.8887 23.6428 11.6102C23.5765 11.5465 23.5103 11.4827 23.444 11.419C23.4104 11.3864 23.3769 11.3538 23.3423 11.3202C23.178 11.1614 23.0112 11.0053 22.8444 10.8491C22.7965 10.8042 22.7965 10.8042 22.7477 10.7583C22.5345 10.5584 22.3189 10.3613 22.1014 10.1661C21.9454 10.0247 21.7914 9.8813 21.6373 9.73777C21.4311 9.54579 21.2233 9.35642 21.0106 9.17173C20.885 9.06093 20.7623 8.94709 20.6393 8.83339C20.4567 8.66579 20.2712 8.505 20.0785 8.34935C19.8654 8.17668 19.6635 7.99588 19.4639 7.80799C19.2203 7.57874 18.9695 7.36314 18.7092 7.153C18.5768 7.04379 18.4498 6.93042 18.3233 6.81445C18.1092 6.61854 17.888 6.43397 17.6629 6.251C17.4951 6.11249 17.331 5.97015 17.1669 5.82727C16.9023 5.59747 16.6317 5.37771 16.3554 5.16235C16.1537 5.00453 15.9575 4.8416 15.7633 4.6745C15.4554 4.41006 15.1402 4.15629 14.8194 3.90785C14.7533 3.85652 14.6876 3.80489 14.622 3.75301C13.9549 3.22534 13.4673 2.93677 12.5951 3.01859C12.0685 3.10823 11.6292 3.55814 11.2264 3.88476C11.1901 3.9141 11.1537 3.94345 11.1163 3.97368C10.9109 4.13996 10.7066 4.30747 10.5026 4.4755C10.3844 4.57246 10.2653 4.66815 10.146 4.76367C9.73755 5.0914 9.33488 5.42555 8.93671 5.76576C8.76586 5.9115 8.59341 6.05489 8.41928 6.19667C8.13032 6.43314 7.84954 6.67855 7.5686 6.92451C7.38111 7.08859 7.19219 7.25095 7.00306 7.41312C6.79973 7.58759 6.59884 7.76404 6.40109 7.94493C6.23746 8.09446 6.07019 8.2362 5.89734 8.37483C5.61328 8.6055 5.34862 8.85471 5.08416 9.10767C4.88585 9.29714 4.68404 9.48107 4.47739 9.66131C4.34665 9.77591 4.21903 9.89351 4.09142 10.0116C4.03888 10.0602 3.98634 10.1088 3.9338 10.1573C3.90743 10.1817 3.88107 10.2061 3.8539 10.2313C3.72625 10.3493 3.59834 10.4671 3.47044 10.5848C3.29209 10.7491 3.11377 10.9135 2.93555 11.0779C2.88475 11.1247 2.83389 11.1715 2.78298 11.2181C2.65753 11.3332 2.533 11.449 2.41006 11.5668C2.02458 11.9313 1.77911 12.1447 1.23998 12.1643C0.875457 12.1518 0.644698 12.0931 0.379994 11.8397C0.113909 11.5504 0.00873899 11.3251 0.00435637 10.9256C0.00291877 10.8664 0.00148117 10.8072 0 10.7462C0.0552008 10.3047 0.309118 10.0394 0.619 9.74095C0.653372 9.7069 0.687744 9.67284 0.723157 9.63776C0.923435 9.44086 1.12998 9.25314 1.34181 9.06895C1.51476 8.91632 1.68122 8.7568 1.84829 8.59774C2.08242 8.37482 2.3192 8.15654 2.56273 7.94403C2.70744 7.81662 2.84815 7.68506 2.98887 7.55324C3.19828 7.35799 3.40913 7.16518 3.62529 6.97745C3.74097 6.87589 3.8543 6.77191 3.96786 6.66796C4.14122 6.51046 4.318 6.35973 4.50013 6.21259C4.71413 6.03876 4.91725 5.85693 5.11794 5.66805C5.36154 5.43879 5.61227 5.22319 5.87258 5.01305C6.00498 4.90385 6.13197 4.79048 6.25852 4.6745C6.47378 4.47756 6.696 4.29166 6.92227 4.10767C7.07993 3.97817 7.2348 3.84574 7.38959 3.7128C7.64552 3.49352 7.90743 3.2834 8.17299 3.07605C8.37667 2.91632 8.57483 2.75131 8.77096 2.58233C9.0336 2.35656 9.30281 2.14125 9.57867 1.9319C9.70786 1.83374 9.83465 1.73301 9.96084 1.63097C11.6749 0.256855 13.9069 -0.00119543 15.7031 1.38239Z" fill="#F1B037"/>
<path id="Vector_3" d="M14.2977 16.5629C14.3565 16.5664 14.4153 16.57 14.4759 16.5737C14.5311 16.5778 14.5863 16.5819 14.6432 16.5861C14.6921 16.5896 14.741 16.5931 14.7914 16.5967C15.0003 16.6375 15.1386 16.7378 15.2957 16.8781C15.5322 17.2857 15.4505 17.912 15.4632 18.373C15.4642 18.4102 15.4653 18.4473 15.4664 18.4856C15.4899 19.322 15.4936 20.1581 15.4924 20.9947C15.4921 21.1972 15.4922 21.3997 15.4925 21.6022C15.4935 22.3961 15.4895 23.1898 15.4692 23.9834C15.4673 24.0574 15.4656 24.1315 15.464 24.2056C15.4618 24.3074 15.4588 24.4091 15.4558 24.5108C15.4543 24.5683 15.4527 24.6258 15.4511 24.6851C15.4351 24.8265 15.4351 24.8265 15.3337 24.9793C15.1842 24.9947 15.0453 25.0002 14.8957 24.9991C14.8503 24.9994 14.805 24.9997 14.7583 24.9999C14.6079 25.0006 14.4575 25.0002 14.3072 24.9996C14.203 24.9997 14.0988 24.9999 13.9946 25.0001C13.7761 25.0003 13.5576 25 13.3391 24.9993C13.0585 24.9984 12.7779 24.9989 12.4973 24.9998C12.2821 25.0004 12.0669 25.0002 11.8518 24.9998C11.7483 24.9997 11.6448 24.9998 11.5413 25.0002C11.3969 25.0006 11.2524 25 11.108 24.9991C11.0649 24.9994 11.0218 24.9997 10.9774 25.0001C10.8585 24.9987 10.8585 24.9987 10.67 24.9793C10.5554 24.8066 10.5538 24.739 10.5478 24.5357C10.5459 24.4752 10.544 24.4146 10.542 24.3523C10.5404 24.2859 10.5389 24.2194 10.5373 24.151C10.5354 24.0804 10.5335 24.0099 10.5315 23.9394C10.5109 23.1338 10.5102 22.328 10.5113 21.5223C10.5116 21.3093 10.5114 21.0964 10.5111 20.8834C10.5101 20.0361 10.5154 19.1895 10.5405 18.3426C10.5415 18.3081 10.5425 18.2736 10.5435 18.2381C10.5805 16.9786 10.5805 16.9786 10.8207 16.7406C11.0386 16.6 11.2787 16.5913 11.5318 16.5724C11.5644 16.5697 11.5971 16.567 11.6308 16.5642C12.5192 16.492 13.409 16.5037 14.2977 16.5629Z" fill="#F1B037"/>
<path id="Vector_4" d="M20.2968 0.00429386C20.3391 0.00412428 20.3814 0.00395469 20.4249 0.00377997C20.514 0.00352329 20.603 0.00340246 20.692 0.00341068C20.8271 0.00329935 20.9621 0.00237277 21.0971 0.00140796C21.1841 0.00125842 21.2711 0.00115733 21.3581 0.00110942C21.3979 0.000743313 21.4377 0.000377204 21.4787 0C21.7931 0.00128344 22.1435 0.00932738 22.3993 0.208496C22.4265 0.243766 22.4537 0.279036 22.4817 0.315374C22.5099 0.350512 22.5381 0.385651 22.5672 0.421854C22.7169 0.648047 22.7018 0.890899 22.7128 1.15308C22.7149 1.20384 22.717 1.2546 22.7192 1.3069C22.7476 2.07238 22.7407 2.83863 22.7386 3.6045C22.7381 3.81498 22.7379 4.02545 22.7376 4.23592C22.7371 4.64549 22.7362 5.05505 22.7351 5.46462C22.5509 5.37743 22.4246 5.27104 22.2757 5.13025C22.0876 4.95436 21.8963 4.78599 21.6959 4.62392C21.5041 4.46834 21.3197 4.30769 21.1383 4.13989C20.917 3.93533 20.6889 3.74288 20.455 3.55315C20.2732 3.40282 20.0958 3.24784 19.9185 3.09221C19.6601 2.86545 19.3989 2.64491 19.1287 2.43243C18.9359 2.27707 18.9359 2.27707 18.9209 2.1538C18.9211 2.11308 18.9213 2.07235 18.9215 2.03039C18.9216 1.98528 18.9216 1.94017 18.9217 1.89369C18.9223 1.84573 18.923 1.79778 18.9237 1.74837C18.9242 1.69976 18.9247 1.65115 18.9251 1.60107C18.9384 0.598055 18.9384 0.598055 19.1867 0.267607C19.5154 -0.0113987 19.8874 0.00487437 20.2968 0.00429386Z" fill="#F1B037"/>
</g>
</svg>
