<svg width="15" height="14" viewBox="0 0 15 14" fill="none" xmlns="http://www.w3.org/2000/svg">
<g id="Simplification" clip-path="url(#clip0_1172_17771)">
<path id="Vector" d="M1.94493 -0.00716633C1.9757 -0.00739786 1.9757 -0.00739786 2.0071 -0.00763405C2.07414 -0.00796383 2.14117 -0.00779047 2.20822 -0.00748677C2.23136 -0.00742784 2.2545 -0.00736891 2.27835 -0.00730819C4.63528 0.00227654 6.95096 0.791543 9.44852 2.45168C9.49552 2.48816 9.54287 2.52413 9.59039 2.55994C9.89338 2.78893 10.18 3.03453 10.4584 3.29267C10.5303 3.35901 10.6031 3.42417 10.6762 3.4891C10.8704 3.66359 11.0548 3.84654 11.2244 4.04505C11.2829 4.11239 11.3436 4.1774 11.4043 4.24276C11.5491 4.40161 11.6813 4.5687 11.8122 4.73906C11.8462 4.78306 11.8805 4.82673 11.9149 4.87038C13.2116 6.52576 14.0444 8.51675 14.5129 12.2887C14.5134 12.3222 14.5134 12.3222 14.5139 12.3565C14.5182 12.6909 14.488 12.9337 14.2528 13.1865C14.0425 13.3819 13.8187 13.4421 13.5349 13.437C13.2907 13.4123 13.0955 13.3106 12.9319 13.1286C12.7213 12.856 12.7174 12.5304 12.7116 12.1981C12.6424 9.71332 11.6834 7.30812 10.0439 5.44247C10.0223 5.41783 10.0008 5.39319 9.97854 5.3678C9.81025 5.1802 9.63343 5.00104 9.45602 4.8221C9.43234 4.79807 9.40866 4.77403 9.38426 4.74926C9.22079 4.58558 9.04878 4.43831 8.86813 4.29403C8.84004 4.27041 8.81205 4.24667 8.78428 4.22268C8.19692 3.71896 7.53118 3.30772 6.84469 2.95418C6.82001 2.94147 6.79533 2.92875 6.7699 2.91565C5.37979 2.20797 3.82824 1.83632 2.27246 1.78773C1.59855 1.76627 1.59855 1.76627 1.31548 1.50294C1.11801 1.29037 1.0616 1.06763 1.06672 0.781423C1.09011 0.513236 1.22406 0.322225 1.42507 0.150488C1.58659 0.0279207 1.74309 -0.00738502 1.94493 -0.00716633Z" fill="#4E4D4D"/>
<path id="Vector_2" d="M2.05505 3.76581C2.07602 3.76601 2.09698 3.76622 2.11858 3.76643C4.28228 3.80471 6.31711 4.64245 7.90832 6.09686C7.93423 6.11991 7.96014 6.14297 7.98683 6.16672C9.54747 7.56088 10.5247 9.65326 10.6974 11.7297C10.7004 11.7629 10.7034 11.7961 10.7065 11.8303C10.7847 12.8174 10.7847 12.8174 10.4786 13.1789C10.2936 13.3577 10.0941 13.4276 9.83948 13.4369C9.56835 13.429 9.36131 13.3474 9.16464 13.1596C9.01608 12.9844 8.94661 12.7875 8.9366 12.561C8.93479 12.5238 8.93297 12.4866 8.93112 12.4494C8.93016 12.4299 8.92921 12.4103 8.92823 12.3902C8.87635 11.3616 8.66029 10.3891 8.20911 9.46014C8.1996 9.44043 8.1901 9.42071 8.18031 9.40039C7.86944 8.76346 7.44184 8.19168 6.95129 7.6828C6.93669 7.66759 6.92208 7.65239 6.90703 7.63672C6.71399 7.43679 6.51609 7.2505 6.29504 7.08124C6.27276 7.06403 6.27276 7.06403 6.25004 7.04647C5.05193 6.12562 3.61934 5.61818 2.11075 5.56955C1.785 5.55823 1.53447 5.51842 1.28964 5.28456C1.08732 5.04608 1.04928 4.78724 1.07239 4.48358C1.13109 4.23771 1.26585 4.03453 1.47913 3.89911C1.66052 3.79195 1.8474 3.76299 2.05505 3.76581Z" fill="#4E4D4D"/>
<path id="Vector_3" d="M4.26711 8.11374C4.68792 8.32914 5.10157 8.6215 5.42366 8.96845C5.45665 9.00144 5.45665 9.00144 5.49031 9.0351C5.51343 9.05822 5.53656 9.08134 5.56038 9.10516C5.5829 9.12578 5.5829 9.12578 5.60588 9.14682C6.42068 9.91468 6.89682 11.1586 6.93408 12.265C6.93491 12.3186 6.93558 12.3721 6.93611 12.4257C6.93691 12.4523 6.9377 12.4789 6.93852 12.5063C6.94097 12.7889 6.85615 13.0019 6.66203 13.2073C6.42357 13.4136 6.16549 13.4445 5.86116 13.4255C5.63966 13.3883 5.45448 13.2642 5.31899 13.0865C5.16877 12.8495 5.14431 12.6245 5.12801 12.3505C5.06862 11.5388 4.74452 10.8261 4.16585 10.2536C4.13402 10.2209 4.13402 10.2209 4.10155 10.1875C3.59447 9.69522 2.84018 9.39702 2.13825 9.37068C1.80511 9.35754 1.515 9.3048 1.27318 9.05454C1.07948 8.81504 1.04604 8.5599 1.07601 8.25751C1.12301 8.04527 1.24072 7.87911 1.40413 7.73798C2.19608 7.24638 3.50134 7.73756 4.26711 8.11374Z" fill="#4E4D4D"/>
<path id="Vector_4" d="M2.55093 11.1846C2.57133 11.1928 2.59174 11.201 2.61277 11.2094C2.95853 11.3664 3.20574 11.6526 3.34389 12.0032C3.49231 12.419 3.45356 12.8399 3.27212 13.237C3.07422 13.6124 2.75779 13.8416 2.35952 13.9736C2.23144 14.0106 2.10572 14.0071 1.97329 14.0078C1.94869 14.0084 1.92408 14.0089 1.89873 14.0095C1.49129 14.0119 1.16148 13.8393 0.874839 13.5588C0.555186 13.2243 0.486362 12.8415 0.49256 12.3957C0.505393 12.0332 0.687606 11.7222 0.930594 11.4608C1.37029 11.0515 2.00335 10.9632 2.55093 11.1846Z" fill="#4E4D4D"/>
</g>
<defs>
<clipPath id="clip0_1172_17771">
<rect width="14" height="14" fill="white" transform="translate(0.5)"/>
</clipPath>
</defs>
</svg>
