<svg width="19" height="19" viewBox="0 0 19 19" fill="none" xmlns="http://www.w3.org/2000/svg">
<g id="Layer_2" clip-path="url(#clip0_1227_3495)">
<path id="Vector" d="M13.4021 9.79099V6.32849C12.5778 6.32849 11.7846 6.32849 10.9923 6.32849C10.7594 6.32849 10.5255 6.33545 10.2925 6.32551C9.37981 6.28676 8.73319 5.62308 8.71612 4.68021C8.69905 3.74131 8.70708 2.80142 8.70206 1.86252C8.70206 1.83172 8.68098 1.80191 8.64383 1.70455C8.50828 1.70455 8.34763 1.70455 8.18698 1.70455C6.10454 1.70455 4.0231 1.70455 1.94066 1.70455C1.28099 1.70455 1.19665 1.789 1.19665 2.44672C1.19665 7.14419 1.19665 11.8417 1.19665 16.5391C1.19665 17.2296 1.26191 17.2932 1.97179 17.2932C5.52017 17.2932 9.06755 17.2932 12.6159 17.2932C13.3469 17.2932 13.364 17.2485 13.4071 16.553C13.4232 16.3056 13.5598 16.0384 13.7124 15.8317C13.9333 15.5337 14.2184 15.2823 14.5719 14.9107C14.5719 15.8208 14.6311 16.5749 14.5548 17.3141C14.4855 17.9798 13.7927 18.4924 13.0868 18.4934C9.23924 18.5004 5.39165 18.5014 1.54305 18.4934C0.64441 18.4914 0.00381384 17.8188 0.0018057 16.8998C-0.00321465 14.4437 -0.000202439 11.9877 -0.000202439 9.53167C-0.000202439 7.09253 -0.00120651 4.65239 -0.000202439 2.21324C0.0018057 1.1581 0.638386 0.512297 1.69768 0.509316C4.07933 0.503355 6.46199 0.483484 8.84364 0.530181C9.26535 0.538129 9.77642 0.742799 10.0837 1.02795C11.4442 2.28974 12.7434 3.61612 14.0708 4.91369C14.4614 5.29521 14.6482 5.74826 14.6462 6.28676C14.6441 6.8968 14.618 7.50783 14.6562 8.11587C14.6833 8.55303 14.5397 8.86401 14.2134 9.14618C13.9654 9.35979 13.7706 9.63401 13.5517 9.88041C13.5015 9.8506 13.4523 9.82179 13.4021 9.79198V9.79099ZM9.95715 2.64543C9.95715 3.40847 9.94008 4.08011 9.97221 4.74876C9.97824 4.87593 10.1791 5.09451 10.2975 5.10047C10.9964 5.13425 11.6982 5.11736 12.4111 5.11736C11.5918 4.29272 10.8156 3.51081 9.95615 2.64643L9.95715 2.64543Z" fill="url(#paint0_linear_1227_3495)"/>
<path id="Vector_2" d="M15.8563 9.11523C16.3212 9.58419 16.8554 10.1227 17.3373 10.6085C16.0662 11.8673 14.7669 13.154 13.5088 14.3999C13.054 13.9458 12.5108 13.4024 12.0067 12.8986C13.2297 11.6965 14.533 10.4158 15.8563 9.11623V9.11523Z" fill="url(#paint1_linear_1227_3495)"/>
<path id="Vector_3" d="M7.34677 11.1986C8.32775 11.1986 9.30872 11.1946 10.2897 11.2006C10.8168 11.2035 11.0859 11.4152 11.0899 11.8076C11.094 12.2001 10.8289 12.4186 10.2967 12.4196C8.31871 12.4256 6.33969 12.4246 4.36167 12.4196C3.81747 12.4186 3.5052 12.1732 3.52227 11.7917C3.53934 11.4281 3.84759 11.2025 4.35364 11.2006C5.35068 11.1966 6.34873 11.1996 7.34577 11.1996L7.34677 11.1986Z" fill="url(#paint2_linear_1227_3495)"/>
<path id="Vector_4" d="M6.69412 5.11911V6.78329C6.53548 6.79819 6.40796 6.82005 6.28145 6.82204C5.62981 6.83297 5.62479 6.83098 5.61675 6.20108C5.61274 5.94077 5.59968 5.63575 5.27336 5.6745C5.12878 5.69139 4.97917 5.99442 4.90888 6.19412C4.84764 6.367 4.89583 6.57763 4.89583 6.79919H3.83353V5.10818C3.66786 5.0595 3.53632 5.02075 3.37567 4.97306C3.39575 4.8737 3.38471 4.77336 3.42989 4.72765C3.9741 4.17326 4.52031 3.62085 5.0846 3.08732C5.15689 3.01975 5.39285 3.00485 5.45811 3.06546C6.06156 3.62383 6.64492 4.20406 7.30961 4.85085C7.05257 4.96412 6.89895 5.03068 6.69512 5.1211L6.69412 5.11911Z" fill="url(#paint3_linear_1227_3495)"/>
<path id="Vector_5" d="M7.30862 8.19508C8.32273 8.19508 9.33583 8.19011 10.3499 8.19707C10.845 8.20005 11.096 8.41465 11.0899 8.79716C11.0839 9.1767 10.8259 9.39031 10.3349 9.3913C8.30767 9.39528 6.27945 9.39528 4.25223 9.3913C3.78233 9.39031 3.5052 9.14888 3.50721 8.77829C3.50922 8.4077 3.77229 8.19905 4.26729 8.19707C5.2814 8.1921 6.29451 8.19607 7.30862 8.19607V8.19508Z" fill="url(#paint4_linear_1227_3495)"/>
<path id="Vector_6" d="M9.56474 14.2529C9.56474 14.3344 9.57277 14.3841 9.56373 14.4288C9.41982 15.1104 8.99476 15.4512 8.28857 15.4512C6.92504 15.4512 5.56051 15.4641 4.19799 15.4353C3.98914 15.4313 3.72105 15.2773 3.59956 15.1084C3.50719 14.9802 3.55036 14.6921 3.63471 14.5252C3.69997 14.394 3.92086 14.2649 4.07348 14.2629C5.90089 14.245 7.7283 14.251 9.56574 14.251L9.56474 14.2529Z" fill="url(#paint5_linear_1227_3495)"/>
<path id="Vector_7" d="M11.1451 13.6035C11.7084 14.1659 12.2536 14.7103 12.8229 15.2796C12.6211 15.6065 12.2687 15.7963 11.8178 15.8658C11.4765 15.9185 11.1451 16.0695 10.8047 16.0854C10.6401 16.0933 10.3057 15.8608 10.3198 15.7873C10.4654 15.0074 10.4061 14.1331 11.1451 13.6035Z" fill="url(#paint6_linear_1227_3495)"/>
<path id="Vector_8" d="M16.5099 8.28278C17.5682 7.07264 17.4266 7.34786 18.3323 8.22217C19.241 9.09947 19.2128 9.02694 18.3001 9.86152C18.2519 9.90623 18.1997 9.94597 18.1927 9.95193C17.6284 9.39157 17.0722 8.84016 16.5099 8.28278Z" fill="url(#paint7_linear_1227_3495)"/>
</g>
<defs>
<linearGradient id="paint0_linear_1227_3495" x1="-0.00109863" y1="0.5" x2="17.6257" y2="14.8573" gradientUnits="userSpaceOnUse">
<stop stop-color="#4A7566"/>
<stop offset="1" stop-color="#011A19"/>
</linearGradient>
<linearGradient id="paint1_linear_1227_3495" x1="12.0067" y1="9.11523" x2="17.2912" y2="14.4456" gradientUnits="userSpaceOnUse">
<stop stop-color="#4A7566"/>
<stop offset="1" stop-color="#011A19"/>
</linearGradient>
<linearGradient id="paint2_linear_1227_3495" x1="3.52161" y1="11.1973" x2="3.90894" y2="13.5874" gradientUnits="userSpaceOnUse">
<stop stop-color="#4A7566"/>
<stop offset="1" stop-color="#011A19"/>
</linearGradient>
<linearGradient id="paint3_linear_1227_3495" x1="3.37567" y1="3.02734" x2="7.17031" y2="6.95882" gradientUnits="userSpaceOnUse">
<stop stop-color="#4A7566"/>
<stop offset="1" stop-color="#011A19"/>
</linearGradient>
<linearGradient id="paint4_linear_1227_3495" x1="3.5072" y1="8.19336" x2="3.87828" y2="10.5364" gradientUnits="userSpaceOnUse">
<stop stop-color="#4A7566"/>
<stop offset="1" stop-color="#011A19"/>
</linearGradient>
<linearGradient id="paint5_linear_1227_3495" x1="3.54773" y1="14.25" x2="4.01081" y2="16.5655" gradientUnits="userSpaceOnUse">
<stop stop-color="#4A7566"/>
<stop offset="1" stop-color="#011A19"/>
</linearGradient>
<linearGradient id="paint6_linear_1227_3495" x1="10.3193" y1="13.6035" x2="12.8013" y2="16.107" gradientUnits="userSpaceOnUse">
<stop stop-color="#4A7566"/>
<stop offset="1" stop-color="#011A19"/>
</linearGradient>
<linearGradient id="paint7_linear_1227_3495" x1="16.5099" y1="7.46875" x2="18.9931" y2="9.95827" gradientUnits="userSpaceOnUse">
<stop stop-color="#4A7566"/>
<stop offset="1" stop-color="#011A19"/>
</linearGradient>
<clipPath id="clip0_1227_3495">
<rect width="19" height="18" fill="white" transform="translate(0 0.5)"/>
</clipPath>
</defs>
</svg>
