<svg width="23" height="19" viewBox="0 0 23 19" fill="none" xmlns="http://www.w3.org/2000/svg">
<g id="Layer_1" clip-path="url(#clip0_1227_3594)">
<path id="Vector" d="M0 9.23236C0.147703 8.90437 0.404881 8.72311 0.754155 8.63679C1.02176 8.57119 1.33976 8.53322 1.52395 8.36231C1.69772 8.20177 1.71857 7.88068 1.82283 7.63727C1.95142 7.3369 2.0887 7.03825 2.23988 6.74996C2.30765 6.62221 2.30938 6.52382 2.23988 6.40125C2.09912 6.14749 1.9688 5.88682 1.84195 5.62615C1.66992 5.27398 1.71683 4.96153 1.98965 4.68532C2.29896 4.37114 2.61 4.0604 2.92626 3.75313C3.20603 3.48037 3.51881 3.43204 3.87156 3.60294C4.14612 3.73586 4.41372 3.88605 4.69349 4.01034C4.77168 4.04487 4.88985 4.03624 4.97325 4.00344C5.47197 3.80664 5.96721 3.60294 6.45897 3.38888C6.5476 3.3509 6.64317 3.26804 6.67792 3.18172C6.78566 2.91242 6.86212 2.63276 6.95595 2.35829C7.09671 1.9457 7.34172 1.76789 7.77267 1.76617C8.20014 1.76617 8.62587 1.76444 9.05334 1.76617C9.44258 1.76789 9.70497 1.95088 9.83356 2.31685C9.93261 2.59824 10.0212 2.88135 10.1099 3.16446C10.1481 3.2853 10.2106 3.34745 10.3427 3.39751C10.831 3.57877 11.3089 3.78765 11.7902 3.9879C11.8371 4.00689 11.884 4.02933 11.9501 4.05868C12.0665 2.80885 12.6191 1.81796 13.6582 1.12226C14.421 0.611282 15.2743 0.414485 16.1796 0.530146C18.1241 0.780458 19.5212 2.379 19.4986 4.29691C19.4847 5.45352 19.0224 6.40816 18.138 7.14528C17.2604 7.87723 16.2335 8.13617 15.1022 7.97045C15.0918 8.16724 15.21 8.15688 15.3264 8.15688C16.1639 8.15688 17.0032 8.14825 17.8408 8.15861C20.4022 8.18968 22.5256 10.004 22.9374 12.5158C22.9774 12.7574 22.993 13.0043 22.993 13.2494C22.9983 14.6201 22.9965 15.9908 22.9948 17.3632C22.9948 18.0192 22.5534 18.4835 21.8948 18.4922C20.9825 18.5043 20.0685 18.4973 19.1545 18.4973C16.0562 18.4973 12.9562 18.4973 9.85789 18.4973C9.17671 18.4973 8.49554 18.4991 7.81611 18.4973C7.32087 18.4956 7.09149 18.3282 6.93684 17.8655C6.84995 17.6049 6.77697 17.339 6.67792 17.0835C6.64665 17.0024 6.55976 16.9195 6.47809 16.8833C5.97937 16.6675 5.47718 16.4603 4.97152 16.2635C4.88811 16.2307 4.76647 16.2273 4.68654 16.2635C4.41372 16.3844 4.15307 16.5311 3.88373 16.6606C3.51881 16.8384 3.20603 16.79 2.91931 16.5104C2.60479 16.2031 2.29201 15.8924 1.9827 15.5765C1.71683 15.3054 1.66818 14.9964 1.835 14.6546C1.96532 14.3871 2.10086 14.1229 2.24335 13.8605C2.30591 13.7449 2.30069 13.6551 2.24509 13.5325C2.02614 13.0457 1.83326 12.5468 1.61952 12.0566C1.58303 11.9754 1.50484 11.8874 1.4249 11.8546C1.20422 11.7648 0.976579 11.6906 0.745467 11.6319C0.39793 11.5439 0.137277 11.3626 0 11.026V9.23754L0 9.23236ZM18.2301 17.7654V17.503C18.2301 16.2808 18.2301 15.0586 18.2301 13.8364C18.2301 13.7621 18.2266 13.6862 18.237 13.6137C18.2579 13.4359 18.3639 13.3288 18.5394 13.3064C18.7131 13.284 18.8521 13.353 18.9147 13.5205C18.9442 13.6016 18.9512 13.6948 18.9512 13.7811C18.9529 15.0258 18.9512 16.2704 18.9512 17.5134V17.7758C19.0468 17.7758 19.118 17.7758 19.191 17.7758C20.0511 17.7758 20.913 17.7758 21.7732 17.7758C22.1537 17.7758 22.2789 17.648 22.2789 17.2613C22.2789 15.9649 22.2875 14.6684 22.2736 13.372C22.2702 13.0319 22.2354 12.6849 22.159 12.3552C21.6463 10.149 19.6723 8.56947 16.8225 8.90091C16.8799 9.52756 16.939 10.1559 16.998 10.7826C17.0641 11.4938 17.137 12.205 17.1944 12.918C17.2048 13.0457 17.1909 13.1942 17.1318 13.3029C16.7895 13.9313 16.435 14.5511 16.0771 15.1708C15.8842 15.504 15.5697 15.504 15.3785 15.1708C15.0223 14.5511 14.6695 13.9296 14.322 13.3047C14.2733 13.2184 14.2403 13.1062 14.249 13.0095C14.2907 12.483 14.3463 11.9564 14.3967 11.4317C14.4767 10.5875 14.5549 9.74334 14.6348 8.89056C14.5913 8.88365 14.5548 8.87329 14.5201 8.87502C14.0561 8.8871 13.5904 8.87157 13.1299 8.91645C11.0048 9.12188 9.25665 10.9673 9.20278 13.0889C9.16803 14.5044 9.18714 15.92 9.18714 17.3356C9.18714 17.6532 9.32094 17.7758 9.64415 17.7758C10.5356 17.7758 11.4253 17.7758 12.3167 17.7758C12.3741 17.7758 12.4314 17.7654 12.5026 17.7585C12.5026 17.6549 12.5026 17.5669 12.5026 17.4771C12.5026 16.2618 12.5026 15.0482 12.5026 13.8329C12.5026 13.7362 12.487 13.6171 12.5357 13.5498C12.6121 13.448 12.7268 13.3444 12.845 13.3081C13.0031 13.2598 13.1386 13.3616 13.196 13.517C13.2307 13.612 13.2359 13.7207 13.2359 13.8243C13.2377 15.0465 13.2359 16.2687 13.2359 17.4909V17.7637H18.2248L18.2301 17.7654ZM11.997 4.84241C11.8423 4.7889 11.7068 4.74919 11.5782 4.6974C11.0552 4.48335 10.5373 4.25548 10.0091 4.0535C9.74494 3.95337 9.559 3.79974 9.47212 3.53043C9.37481 3.23351 9.26881 2.94004 9.18019 2.6414C9.1437 2.5171 9.08288 2.47913 8.95777 2.48085C8.58416 2.48776 8.20882 2.48603 7.83522 2.48085C7.72053 2.47913 7.66145 2.51365 7.62844 2.62931C7.54503 2.91415 7.44251 3.19381 7.35562 3.47865C7.25831 3.78938 7.05153 3.96201 6.74396 4.07421C6.24003 4.25547 5.74479 4.46263 5.25823 4.68705C4.96978 4.81997 4.70565 4.84241 4.42588 4.69223C4.16176 4.5524 3.89241 4.42465 3.62829 4.2831C3.52924 4.22958 3.46321 4.23303 3.3798 4.31935C3.11567 4.59383 2.84807 4.86485 2.57004 5.12552C2.47273 5.21702 2.4762 5.28607 2.53528 5.3931C2.67777 5.65377 2.8081 5.92307 2.94538 6.18546C3.0896 6.45822 3.06528 6.71543 2.93495 6.99509C2.70731 7.48536 2.49532 7.98598 2.30938 8.49351C2.19991 8.79389 2.02614 8.99068 1.72552 9.08735C1.44054 9.17712 1.15904 9.27379 0.872318 9.36011C0.764581 9.39291 0.714189 9.44124 0.715926 9.56208C0.722877 9.94187 0.722877 10.3216 0.715926 10.7014C0.714189 10.8188 0.755893 10.8723 0.868843 10.9051C1.14166 10.9845 1.40752 11.0847 1.6786 11.1624C2.02962 11.2625 2.21381 11.4921 2.33024 11.8322C2.48836 12.2948 2.66735 12.754 2.89151 13.189C3.07049 13.5377 3.0896 13.8415 2.89672 14.1782C2.73859 14.4527 2.60653 14.7427 2.45882 15.0327C2.7803 15.3503 3.08439 15.6593 3.40065 15.9545C3.44583 15.996 3.56573 16.0046 3.62655 15.977C3.89241 15.8579 4.15133 15.7249 4.40677 15.5851C4.70218 15.4211 4.97673 15.4487 5.28082 15.5903C5.75869 15.8147 6.24698 16.0201 6.74396 16.1962C7.055 16.3067 7.25831 16.481 7.35562 16.79C7.44598 17.0732 7.53287 17.358 7.63713 17.6359C7.65798 17.6946 7.73965 17.7671 7.79699 17.7723C8.02637 17.7878 8.25748 17.7792 8.46253 17.7792V13.9572C6.19485 13.9279 4.78385 12.2085 4.5927 10.5374C4.40677 8.91818 5.36597 7.28338 6.92467 6.62739C7.69273 6.30458 8.48859 6.23553 9.29661 6.4375C10.4557 6.72579 11.3019 7.42321 11.8336 8.44172C12.2715 8.35368 12.6764 8.23802 13.09 8.19832C13.507 8.15688 13.9328 8.18968 14.3602 8.18968C14.322 7.87032 14.2125 7.68906 13.9449 7.55959C13.3889 7.29374 12.9544 6.87253 12.6069 6.365C12.2872 5.89717 12.0943 5.37756 12.0005 4.84759L11.997 4.84241ZM15.7347 1.22584C14.0509 1.22584 12.6782 2.58961 12.6799 4.26238C12.6799 5.93343 14.0648 7.30583 15.74 7.29719C17.4151 7.28856 18.7792 5.92997 18.7792 4.26756C18.7792 2.58788 17.4186 1.22584 15.7347 1.22584ZM8.45036 13.1925C8.56679 11.2383 9.48776 9.76578 11.1733 8.76972C10.4782 7.36107 8.80833 6.69817 7.34172 7.23332C5.84383 7.77883 5.00106 9.37219 5.39899 10.9051C5.75521 12.2758 7.20792 13.3703 8.45036 13.1907V13.1925ZM15.7313 14.318C15.978 13.883 16.2057 13.4911 16.4229 13.0923C16.4594 13.0267 16.468 12.937 16.4611 12.861C16.3829 11.9651 16.2995 11.0691 16.2161 10.1732C16.1761 9.74507 16.1309 9.31868 16.0875 8.88538H15.3663C15.243 10.2267 15.1196 11.5577 14.998 12.8904C14.9927 12.9473 14.9927 13.0164 15.0188 13.063C15.2447 13.4721 15.4793 13.8761 15.7313 14.318Z" fill="url(#paint0_linear_1227_3594)" stroke="url(#paint1_linear_1227_3594)" stroke-width="0.5"/>
</g>
<defs>
<linearGradient id="paint0_linear_1227_3594" x1="0" y1="0.498047" x2="17.4746" y2="22.8218" gradientUnits="userSpaceOnUse">
<stop stop-color="#4A7566"/>
<stop offset="1" stop-color="#011A19"/>
</linearGradient>
<linearGradient id="paint1_linear_1227_3594" x1="0" y1="0.498047" x2="17.4746" y2="22.8218" gradientUnits="userSpaceOnUse">
<stop stop-color="#4A7566"/>
<stop offset="1" stop-color="#011A19"/>
</linearGradient>
<clipPath id="clip0_1227_3594">
<rect width="23" height="18" fill="white" transform="translate(0 0.5)"/>
</clipPath>
</defs>
</svg>
