<svg width="18" height="19" viewBox="0 0 18 19" fill="none" xmlns="http://www.w3.org/2000/svg">
<g id="Capa_1" clip-path="url(#clip0_500_981)">
<path id="Vector" d="M0 9.49362C0 7.26249 0 5.03136 0 2.80022C0.00106377 1.47579 0.973347 0.5 2.29455 0.5C6.38473 0.5 10.4738 0.5 14.564 0.5C15.748 0.5 16.6565 1.2717 16.8447 2.44095C16.865 2.56319 16.8596 2.68968 16.8596 2.81511C16.8596 4.55197 16.8596 6.28989 16.8596 8.02675C16.8596 8.1086 16.8596 8.19576 16.8362 8.27336C16.7767 8.46788 16.5724 8.59011 16.3767 8.56248C16.1778 8.53484 16.0203 8.3669 16.0054 8.16493C16.0012 8.10541 16.0033 8.04588 16.0033 7.98636C16.0033 6.27288 16.0033 4.55941 16.0033 2.84593C16.0033 1.94349 15.4225 1.35674 14.5225 1.35674C10.4621 1.35567 6.40281 1.35567 2.34241 1.35674C1.4414 1.35674 0.857396 1.94349 0.857396 2.84274C0.857396 7.27525 0.857396 11.7077 0.857396 16.1403C0.857396 17.0501 1.4414 17.6316 2.35624 17.6316C4.10614 17.6316 5.8571 17.6316 7.607 17.6316C7.92932 17.6316 8.11122 17.7857 8.11229 18.0536C8.11441 18.2757 7.96123 18.4543 7.7421 18.4862C7.70061 18.4926 7.65912 18.4904 7.61764 18.4904C5.81987 18.4904 4.0221 18.4947 2.22434 18.4894C0.997813 18.4851 0.0031913 17.4849 0.00106377 16.2582C-0.00106377 14.0037 0.00106377 11.7481 0.00106377 9.49362H0Z" fill="url(#paint0_linear_500_981)"/>
<path id="Vector_2" d="M9.06754 14.2482C9.01435 14.2652 8.98669 14.2726 8.95903 14.2822C8.75053 14.3502 8.55267 14.2854 8.44417 14.1142C8.33141 13.9367 8.35694 13.7177 8.52395 13.5636C8.74202 13.3617 8.96861 13.1682 9.192 12.9716C10.1887 12.0957 11.1834 11.2188 12.1812 10.3439C12.8045 9.79759 13.5758 9.8029 14.1991 10.3503C14.3279 10.463 14.4587 10.5746 14.581 10.682C14.6672 10.5098 14.7321 10.3354 14.8342 10.1856C15.1672 9.69661 15.7831 9.49146 16.3458 9.66685C16.9309 9.84861 17.3075 10.3578 17.3139 10.9966C17.3202 11.6386 17.3181 12.2817 17.3139 12.9237C17.3139 13.0417 17.3458 13.1246 17.4373 13.198C17.567 13.3011 17.6894 13.4159 17.8128 13.5275C18.0085 13.705 18.0521 13.9059 17.9383 14.0983C17.8255 14.2896 17.633 14.3491 17.3798 14.2705C17.3639 14.2652 17.3468 14.2641 17.3149 14.2588C17.3149 14.3289 17.3149 14.3938 17.3149 14.4586C17.3149 15.3568 17.3053 16.255 17.3181 17.1532C17.3309 18.0386 16.6479 18.5074 15.9831 18.5C14.1087 18.4776 12.2333 18.4925 10.3589 18.4915C9.58878 18.4915 9.07179 17.9812 9.0686 17.2095C9.06435 16.2933 9.0686 15.377 9.0686 14.4618C9.0686 14.397 9.0686 14.3311 9.0686 14.2482H9.06754ZM14.7927 17.6358C15.1948 17.6358 15.5682 17.6358 15.9427 17.6358C16.3267 17.6358 16.4437 17.5189 16.4437 17.1373C16.4437 15.9776 16.4416 14.8179 16.4469 13.6582C16.4469 13.519 16.4011 13.4297 16.299 13.3404C15.4076 12.5623 14.5193 11.7789 13.63 10.9987C13.3322 10.7372 13.0513 10.733 12.7524 10.9945C11.8386 11.7927 10.927 12.5942 10.0185 13.3978C9.97174 13.4393 9.93132 13.5147 9.93132 13.5753C9.926 14.8009 9.92706 16.0254 9.92919 17.251C9.92919 17.4572 10.0579 17.6198 10.2611 17.6262C10.7174 17.6411 11.1738 17.6305 11.6472 17.6305C11.6472 17.4753 11.6419 17.3339 11.6482 17.1925C11.6621 16.879 11.6376 16.5548 11.7089 16.2539C11.8865 15.5003 12.6003 15.0592 13.4332 15.1453C14.1874 15.2229 14.7576 15.8086 14.7906 16.5569C14.8055 16.9066 14.7927 17.2574 14.7927 17.6368V17.6358ZM13.9364 17.6305C13.9364 17.2999 13.9375 16.9853 13.9364 16.6717C13.9353 16.3539 13.7662 16.1115 13.4949 16.0329C13.1524 15.9329 12.7928 16.0329 12.6269 16.2816C12.5875 16.34 12.5429 16.4091 12.5418 16.474C12.5333 16.8577 12.5375 17.2414 12.5375 17.6305H13.9364ZM16.4288 12.3083C16.4288 11.7853 16.4448 11.3006 16.4214 10.8191C16.4118 10.6076 16.1799 10.4587 15.9554 10.4556C15.7225 10.4524 15.5044 10.5991 15.4693 10.8191C15.4395 11.0051 15.4491 11.1975 15.4438 11.3878C15.4438 11.4143 15.4555 11.4494 15.4746 11.4675C15.7831 11.7428 16.0927 12.0149 16.4267 12.3104L16.4288 12.3083Z" fill="url(#paint1_linear_500_981)"/>
<path id="Vector_3" d="M8.28886 5.23552C6.92085 5.23552 5.55285 5.23552 4.18378 5.23552C4.09549 5.23552 4.00401 5.23127 3.9189 5.21108C3.73062 5.16537 3.60935 4.99955 3.60828 4.80503C3.60722 4.61051 3.7253 4.44363 3.91252 4.39473C3.9923 4.37347 4.07634 4.36603 4.15931 4.36603C6.91341 4.36497 9.6675 4.36497 12.4227 4.36603C12.762 4.36603 12.9556 4.51166 12.9694 4.77314C12.9811 5.00168 12.8492 5.17706 12.6248 5.22171C12.5503 5.23659 12.4716 5.23765 12.3939 5.23765C11.0259 5.23765 9.65793 5.23765 8.28886 5.23765V5.23552Z" fill="url(#paint2_linear_500_981)"/>
<path id="Vector_4" d="M7.24529 8.5613C6.20492 8.5613 5.16349 8.5613 4.12313 8.5613C3.80294 8.5613 3.6072 8.39017 3.60933 8.12124C3.61146 7.9129 3.74868 7.74602 3.95506 7.70882C4.03058 7.695 4.10824 7.69287 4.18589 7.69287C6.21982 7.69287 8.25374 7.69287 10.2887 7.69287C10.36 7.69287 10.4323 7.69287 10.5025 7.70456C10.7195 7.73752 10.8717 7.9044 10.8781 8.1138C10.8844 8.3147 10.7515 8.49115 10.5451 8.54111C10.4706 8.55918 10.3919 8.56236 10.3153 8.56236C9.29197 8.56343 8.26969 8.56236 7.24635 8.56236L7.24529 8.5613Z" fill="url(#paint3_linear_500_981)"/>
<path id="Vector_5" d="M5.34012 11.882C4.91781 11.882 4.49656 11.882 4.07424 11.882C3.88702 11.882 3.73703 11.8066 3.65193 11.6365C3.58065 11.494 3.57214 11.3314 3.68277 11.2187C3.77426 11.1263 3.9168 11.0295 4.03807 11.0274C4.91142 11.0115 5.78478 11.0147 6.65919 11.0232C6.91982 11.0253 7.08257 11.2124 7.07938 11.4568C7.07513 11.696 6.89961 11.8767 6.64324 11.881C6.20922 11.8884 5.7752 11.8831 5.34119 11.8831L5.34012 11.882Z" fill="url(#paint4_linear_500_981)"/>
<path id="Vector_6" d="M11.9206 13.0895C11.9344 12.3837 12.5089 11.8225 13.2056 11.8342C13.913 11.8459 14.4821 12.4369 14.463 13.1395C14.4438 13.8251 13.8556 14.3906 13.1737 14.3799C12.4738 14.3682 11.9078 13.7857 11.9217 13.0895H11.9206ZM13.1907 12.7026C12.9588 12.7005 12.7833 12.8727 12.7833 13.1033C12.7833 13.3255 12.9503 13.4987 13.1726 13.5041C13.4077 13.5104 13.5865 13.3425 13.5907 13.1129C13.595 12.8833 13.4216 12.7047 13.1907 12.7026Z" fill="url(#paint5_linear_500_981)"/>
</g>
<defs>
<linearGradient id="paint0_linear_500_981" x1="0" y1="0.5" x2="17.9541" y2="17.3248" gradientUnits="userSpaceOnUse">
<stop stop-color="#4A7566"/>
<stop offset="1" stop-color="#011A19"/>
</linearGradient>
<linearGradient id="paint1_linear_500_981" x1="8.37543" y1="9.60498" x2="17.2429" y2="19.2" gradientUnits="userSpaceOnUse">
<stop stop-color="#4A7566"/>
<stop offset="1" stop-color="#011A19"/>
</linearGradient>
<linearGradient id="paint2_linear_500_981" x1="3.60828" y1="4.36523" x2="3.76947" y2="6.09505" gradientUnits="userSpaceOnUse">
<stop stop-color="#4A7566"/>
<stop offset="1" stop-color="#011A19"/>
</linearGradient>
<linearGradient id="paint3_linear_500_981" x1="3.60931" y1="7.69287" x2="3.81461" y2="9.40823" gradientUnits="userSpaceOnUse">
<stop stop-color="#4A7566"/>
<stop offset="1" stop-color="#011A19"/>
</linearGradient>
<linearGradient id="paint4_linear_500_981" x1="3.59888" y1="11.0161" x2="4.00718" y2="12.6518" gradientUnits="userSpaceOnUse">
<stop stop-color="#4A7566"/>
<stop offset="1" stop-color="#011A19"/>
</linearGradient>
<linearGradient id="paint5_linear_500_981" x1="11.9206" y1="11.834" x2="14.4667" y2="14.3769" gradientUnits="userSpaceOnUse">
<stop stop-color="#4A7566"/>
<stop offset="1" stop-color="#011A19"/>
</linearGradient>
<clipPath id="clip0_500_981">
<rect width="18" height="18" fill="white" transform="translate(0 0.5)"/>
</clipPath>
</defs>
</svg>
