<svg width="19" height="19" viewBox="0 0 19 19" fill="none" xmlns="http://www.w3.org/2000/svg">
<g id="Layer_1" clip-path="url(#clip0_1074_472)">
<path id="Vector" d="M19 7.43773C18.9742 7.49004 18.9446 7.54608 18.9187 7.59838C18.7597 7.901 18.4085 8.06164 18.0868 7.98319C17.7541 7.901 17.5211 7.60959 17.5175 7.26588C17.5175 7.01557 17.5175 6.76899 17.5175 6.51121H1.48262C1.48262 6.58219 1.48262 6.64944 1.48262 6.71669C1.48262 8.10274 1.48262 9.49253 1.48262 10.8786C1.48262 11.8724 2.10745 12.5037 3.09461 12.5037C5.17984 12.5037 7.26137 12.5037 9.3466 12.5037C9.72372 12.5037 10.038 12.7727 10.086 13.1314C10.1415 13.5199 9.91597 13.8711 9.53886 13.9757C9.46121 13.9981 9.37988 14.0019 9.30223 14.0019C7.18003 14.0019 5.06153 14.0019 2.93932 14.0019C1.49741 14.0019 0.255143 12.9184 0.0333101 11.4801C0.0296128 11.4465 0.0111268 11.4128 -0.00366211 11.3792C-0.00366211 8.62951 -0.00366211 5.87983 -0.00366211 3.13014C0.00742954 3.10399 0.0259156 3.0741 0.0296128 3.04795C0.277326 1.55355 1.49371 0.5 2.97999 0.5C7.32792 0.5 11.6722 0.5 16.0201 0.5C17.388 0.5 18.5601 1.41158 18.9076 2.74533C18.9409 2.86862 18.9668 2.99564 19 3.12266V7.434V7.43773ZM1.5085 4.98692H17.5138C17.5138 4.54608 17.5211 4.1127 17.5138 3.68306C17.5101 3.49253 17.5027 3.29452 17.4546 3.10772C17.2734 2.41283 16.6967 1.9944 15.9313 1.9944C11.6463 1.9944 7.3612 1.9944 3.07612 1.9944C3.03175 1.9944 2.99108 1.9944 2.94672 1.9944C2.21097 2.02055 1.60093 2.52864 1.52329 3.26837C1.46413 3.82877 1.5122 4.40037 1.5122 4.98319L1.5085 4.98692Z" fill="url(#paint0_linear_1074_472)"/>
<path id="Vector_2" d="M19 15.0881C18.926 15.3048 18.8742 15.5327 18.7707 15.7307C18.3566 16.5414 17.6911 16.9711 16.7816 16.9972C16.5413 17.0047 16.301 16.9972 16.0311 16.9972C16.0311 17.2625 16.0348 17.524 16.0311 17.7818C16.0237 18.189 15.6872 18.4991 15.2769 18.4954C14.8813 18.4916 14.5559 18.1741 14.5485 17.7743C14.5448 17.5875 14.5485 17.4007 14.5485 17.2102C14.5485 17.1467 14.5485 17.0869 14.5485 16.9935C14.4746 16.9935 14.4117 16.9935 14.3452 16.9935C13.6834 16.9935 13.0216 16.9935 12.3598 16.9935C11.905 16.9935 11.5796 16.6834 11.5796 16.25C11.5796 15.8054 11.9013 15.4954 12.3671 15.4954C13.8128 15.4954 15.2621 15.4954 16.7077 15.4954C17.0885 15.4954 17.3806 15.2899 17.4767 14.9686C17.6246 14.468 17.2697 14.001 16.7299 13.9972C15.7649 13.9935 14.7999 13.9972 13.8349 13.9972C12.6555 13.9972 11.6499 13.0819 11.5796 11.9462C11.502 10.7058 12.3265 9.66721 13.5318 9.51404C13.8534 9.47294 14.1862 9.50657 14.5448 9.50657C14.5448 9.23758 14.5448 8.98726 14.5448 8.73322C14.5485 8.37456 14.8036 8.06821 15.1475 8.0047C15.4876 7.94119 15.8314 8.12425 15.9645 8.44555C16.0052 8.54642 16.02 8.66223 16.0237 8.77058C16.0311 9.00221 16.0237 9.23384 16.0237 9.49536C16.0939 9.49536 16.1605 9.49536 16.2233 9.49536C16.8297 9.49536 17.436 9.51404 18.0424 9.48789C18.4971 9.46921 18.8188 9.62238 18.9926 10.0558V10.4294C18.8188 10.8627 18.4971 11.0196 18.0424 10.9972C17.5248 10.9711 17.0035 10.9898 16.4858 10.9898C15.6022 10.9898 14.7186 10.9898 13.8349 10.9898C13.2988 10.9898 12.9402 11.468 13.0955 11.9686C13.1953 12.2861 13.4837 12.4916 13.8497 12.4916C14.8258 12.4916 15.8019 12.4841 16.7779 12.4916C17.5876 12.4991 18.2198 12.8577 18.645 13.5489C18.804 13.8067 18.8779 14.1168 18.9926 14.4044V15.0807L19 15.0881Z" fill="url(#paint1_linear_1074_472)"/>
<path id="Vector_3" d="M4.3849 10.999C4.15568 10.999 3.92645 10.999 3.70092 10.999C3.28313 10.9915 2.96887 10.6627 2.97257 10.2406C2.97257 9.82962 3.29053 9.50458 3.70092 9.50085C4.15937 9.49711 4.61413 9.49711 5.07259 9.50085C5.47928 9.50458 5.79354 9.83709 5.79354 10.248C5.79354 10.659 5.47928 10.9915 5.07628 10.999C4.84706 11.0027 4.61783 10.999 4.3923 10.999H4.3849Z" fill="url(#paint2_linear_1074_472)"/>
<path id="Vector_4" d="M8.68479 10.9981C8.45557 10.9981 8.22634 10.9981 8.00081 10.9981C7.58672 10.9907 7.27246 10.6582 7.27616 10.236C7.27616 9.82877 7.59781 9.50374 8.0082 9.5C8.45926 9.5 8.91033 9.5 9.36139 9.5C9.77917 9.5 10.0971 9.8325 10.0971 10.2509C10.0971 10.6694 9.77547 10.9907 9.35769 10.9981C9.13586 10.9981 8.91402 10.9981 8.69219 10.9981H8.68479Z" fill="url(#paint3_linear_1074_472)"/>
</g>
<defs>
<linearGradient id="paint0_linear_1074_472" x1="-0.00366211" y1="0.5" x2="12.7461" y2="18.4452" gradientUnits="userSpaceOnUse">
<stop stop-color="#4A7566"/>
<stop offset="1" stop-color="#011A19"/>
</linearGradient>
<linearGradient id="paint1_linear_1074_472" x1="11.5746" y1="7.99219" x2="21.4764" y2="14.9924" gradientUnits="userSpaceOnUse">
<stop stop-color="#4A7566"/>
<stop offset="1" stop-color="#011A19"/>
</linearGradient>
<linearGradient id="paint2_linear_1074_472" x1="2.97253" y1="9.49805" x2="4.21946" y2="11.8391" gradientUnits="userSpaceOnUse">
<stop stop-color="#4A7566"/>
<stop offset="1" stop-color="#011A19"/>
</linearGradient>
<linearGradient id="paint3_linear_1074_472" x1="7.27612" y1="9.5" x2="8.51728" y2="11.8371" gradientUnits="userSpaceOnUse">
<stop stop-color="#4A7566"/>
<stop offset="1" stop-color="#011A19"/>
</linearGradient>
<clipPath id="clip0_1074_472">
<rect width="19" height="18" fill="white" transform="translate(0 0.5)"/>
</clipPath>
</defs>
</svg>
